{"glyphs":{"0":{"ha":381,"x_min":2,"x_max":376,"o":"m 181 898 q 211 868 194 898 q 352 787 321 868 q 376 678 376 734 q 238 372 376 523 q 105 304 163 304 l 100 304 q 2 445 2 304 q 111 827 2 589 q 54 811 102 827 l 48 811 q 43 817 43 811 l 43 819 q 130 854 43 828 q 181 898 161 898 m 162 871 l 162 863 l 173 863 l 186 865 l 186 873 q 181 879 186 879 l 176 879 q 162 871 167 871 m 21 439 q 89 323 21 323 l 108 323 q 306 491 205 323 q 357 678 357 589 q 290 836 357 789 q 243 846 264 846 l 208 846 q 130 825 140 846 q 21 439 21 599 z "},"1":{"ha":206,"x_min":-181,"x_max":329,"o":"m 182 836 l 188 836 q 193 830 193 835 l 193 827 q 58 339 169 748 q 63 331 60 331 q 321 363 282 363 q 329 355 325 363 l 329 350 q 310 339 329 346 l 291 342 q 52 309 195 334 q 41 301 52 301 l 31 307 q -178 277 -165 277 l -181 282 l -181 288 q 33 326 -181 296 q 128 667 44 341 q 155 762 131 670 q 153 765 153 762 l 112 743 q 104 746 106 746 l 104 754 q 163 800 159 791 q 182 836 177 836 z "},"2":{"ha":319,"x_min":-57,"x_max":410,"o":"m 279 825 q 312 784 305 825 q 163 437 312 696 q 133 385 133 395 l 136 385 q 393 412 260 412 q 410 404 410 410 l 410 399 q 388 391 408 391 l 361 391 q 106 358 216 391 q -30 266 35 266 q -57 282 -57 273 l -57 288 q 103 380 -57 326 q 293 792 279 640 q 282 806 288 804 l 271 806 q 62 659 222 806 l 52 667 q 217 806 138 757 q 279 825 256 825 m -38 288 l -19 288 q 71 342 20 288 l 71 347 l 68 347 q -38 288 -38 311 z "},"3":{"ha":341,"x_min":-154,"x_max":336,"o":"m 241 791 q 309 721 313 777 q 311 718 311 721 q 180 583 306 661 l 179 577 l 239 585 q 334 515 326 585 q 336 507 333 507 q -3 262 326 400 q -109 235 -54 246 q -151 276 -154 243 q -128 322 -138 322 l -120 322 q -117 317 -120 317 q -132 279 -131 290 l -132 276 q -115 257 -134 257 l -104 257 q 243 409 38 273 q 313 498 311 465 l 315 515 q 259 564 318 556 l 232 564 q 64 528 174 564 l 62 534 l 62 539 q 141 580 65 545 q 288 707 277 656 l 290 724 q 248 770 286 770 l 226 770 q 5 637 153 762 l -5 645 q 149 762 79 724 q 241 791 217 791 z "},"4":{"ha":294,"x_min":-111,"x_max":307,"o":"m 250 850 l 261 842 q 14 604 105 676 l 12 598 l 207 574 l 294 812 l 304 812 q 307 804 304 810 q 229 571 229 579 l 229 568 q 258 557 258 564 l 258 549 q 250 547 256 549 q 220 549 232 549 q 131 283 153 362 q 134 267 131 281 q 117 248 133 261 q 106 256 106 252 q 199 552 106 275 l 199 555 q -18 579 28 579 q -86 547 -71 547 q -111 576 -109 547 l -111 579 q -37 601 -111 601 l -26 601 q 250 850 4 601 m -92 576 l -92 571 q -83 566 -92 566 q -62 576 -62 570 l -62 579 l -78 579 l -92 576 z "},"5":{"ha":338,"x_min":-88,"x_max":595,"o":"m 585 809 l 595 806 l 595 795 l 579 793 q 170 782 484 787 q 69 543 113 635 l 72 543 q 140 549 89 543 q 300 467 261 549 q 308 432 305 453 q 164 264 308 328 q 45 239 98 239 q -88 304 -82 250 q -18 408 -88 340 l -7 399 q -69 302 -69 332 l -69 299 q 23 261 -40 261 l 61 261 q 270 364 189 261 q 286 413 286 399 l 286 446 q 161 527 286 514 l 129 527 q 45 503 45 527 q 20 484 24 484 q 4 497 9 488 l 4 508 q 47 541 8 518 q 148 782 121 690 l 121 779 l 50 779 q -1 777 28 779 q -12 785 -12 781 l -12 790 q 4 798 -12 795 q 585 809 494 809 z "},"6":{"ha":366,"x_min":-68,"x_max":387,"o":"m 382 853 q 387 848 387 852 l 387 840 q 352 815 374 815 q 92 604 163 667 q -33 392 -33 482 q -12 332 -33 351 q 268 533 202 533 q 281 536 268 536 q 338 454 338 527 q 168 273 338 316 q 113 267 140 267 q -9 302 54 267 q -60 256 -13 302 l -63 256 q -68 262 -68 256 l -68 267 q -25 316 -35 301 l -25 319 q -52 395 -52 353 q 322 810 -52 545 q 382 853 366 853 m 7 321 l 7 316 q 113 286 47 286 q 306 389 254 286 q 317 435 317 414 l 317 476 q 284 517 317 511 l 281 517 q 7 321 199 517 z "},"7":{"ha":338,"x_min":-47,"x_max":471,"o":"m 450 822 q 471 806 460 822 l 471 800 q 412 779 471 789 q 37 331 240 597 q -14 266 12 289 l -22 266 q -25 271 -22 271 q 385 776 143 511 l 385 781 l 349 781 q -3 792 222 781 q -12 784 -3 788 q -47 800 -35 784 q -28 814 -47 808 q 395 800 220 800 q 450 822 412 800 z "},"8":{"ha":334,"x_min":-58,"x_max":357,"o":"m 197 885 l 208 885 q 352 836 352 878 q 357 823 355 836 q 127 546 357 745 l 124 532 q 178 386 175 445 l 178 375 q 24 248 178 273 q -58 321 -58 258 q 97 541 -58 397 l 97 546 q 24 687 24 667 q 241 836 24 762 q 246 831 246 836 l 246 828 q 140 779 246 819 q 45 690 45 730 l 45 684 q 111 559 45 658 l 116 559 q 336 814 336 748 l 336 833 q 211 866 336 859 q 130 863 168 863 l 127 869 l 127 874 q 197 885 127 885 m -39 310 q 10 269 -28 269 l 40 269 q 159 359 122 269 l 159 386 q 108 524 159 440 q -39 310 -39 400 z "},"9":{"ha":228,"x_min":-27,"x_max":239,"o":"m 179 881 q 222 870 222 879 l 222 865 q 217 859 222 859 l 160 859 q -8 724 29 859 l -8 710 q 33 672 -8 676 l 54 672 q 214 797 142 672 q 228 824 220 824 l 233 824 q 239 819 239 823 q 81 311 100 381 q 84 309 81 309 q 62 268 70 268 l 54 268 l 52 279 l 190 724 l 187 724 q 46 650 106 650 q -27 715 -27 659 q 57 848 -27 780 q 179 881 117 881 z "},"\u0000":{"ha":0,"x_min":0,"x_max":0,"o":""},"\u001d":{"ha":0,"x_min":0,"x_max":0,"o":""}," ":{"ha":233,"x_min":0,"x_max":0,"o":""}," ":{"ha":233,"x_min":0,"x_max":0,"o":""},"!":{"ha":199,"x_min":0,"x_max":0,"o":""},"\"":{"ha":115,"x_min":0,"x_max":0,"o":""},"#":{"ha":597,"x_min":0,"x_max":0,"o":""},"$":{"ha":412,"x_min":0,"x_max":0,"o":""},"%":{"ha":456,"x_min":0,"x_max":0,"o":""},"&":{"ha":338,"x_min":0,"x_max":0,"o":""},"'":{"ha":80,"x_min":0,"x_max":0,"o":""},"(":{"ha":237,"x_min":0,"x_max":0,"o":""},")":{"ha":277,"x_min":0,"x_max":0,"o":""},"*":{"ha":245,"x_min":0,"x_max":0,"o":""},"+":{"ha":155,"x_min":0,"x_max":0,"o":""},",":{"ha":78,"x_min":0,"x_max":0,"o":""},"-":{"ha":175,"x_min":0,"x_max":0,"o":""},"­":{"ha":175,"x_min":0,"x_max":0,"o":""},".":{"ha":199,"x_min":0,"x_max":0,"o":""},"/":{"ha":175,"x_min":0,"x_max":0,"o":""},":":{"ha":94,"x_min":6,"x_max":85,"o":"m 71 582 l 79 582 q 85 566 85 582 q 47 543 82 553 l 35 555 q 71 582 47 582 m 42 489 l 50 489 q 57 473 56 489 q 18 450 53 460 l 6 462 q 42 489 18 489 z "},";":{"ha":94,"x_min":0,"x_max":0,"o":""},";":{"ha":94,"x_min":0,"x_max":0,"o":""},"<":{"ha":507,"x_min":0,"x_max":0,"o":""},"=":{"ha":175,"x_min":0,"x_max":0,"o":""},">":{"ha":474,"x_min":0,"x_max":0,"o":""},"?":{"ha":368,"x_min":0,"x_max":0,"o":""},"@":{"ha":441,"x_min":0,"x_max":0,"o":""},"A":{"ha":747,"x_min":-321,"x_max":1016,"o":"m 547 975 q 572 954 574 975 q 559 935 559 938 q 577 623 570 623 q 1005 693 736 655 q 1015 685 1016 689 l 1015 680 l 1008 671 l 984 674 q 575 604 842 658 l 575 601 q 603 91 595 152 q 607 77 608 91 l 606 72 l 602 58 l 594 58 q 575 237 584 58 l 556 598 q 323 549 324 562 q 127 205 142 229 l 121 205 q 117 210 116 205 q 304 549 118 223 l 301 549 q -313 433 96 517 q -321 435 -319 435 l -320 444 q 125 533 -319 452 q 317 574 146 541 l 539 954 q 537 962 539 956 q 547 975 537 965 m 345 585 l 345 579 q 553 620 490 604 q 540 913 555 643 l 537 913 q 345 585 452 782 z "},"B":{"ha":914,"x_min":-218,"x_max":834,"o":"m 359 924 l 365 924 q 370 918 370 923 q 359 864 359 873 l 362 864 q 563 910 496 910 q 701 796 701 895 q 574 614 701 705 l 574 606 q 826 465 777 606 q 834 406 834 422 q 609 137 834 242 q 449 99 503 99 q 351 151 379 99 q 346 180 346 170 q 568 381 346 292 l 579 373 q 552 346 579 365 l 547 349 l 538 349 q 365 180 365 275 l 365 175 q 427 121 365 130 l 460 121 q 745 240 592 121 q 818 411 818 322 q 685 574 818 532 q 560 587 631 587 q 433 544 526 587 l 267 503 q 148 37 153 41 q 145 34 145 37 q 134 45 137 36 q 248 492 245 488 q 245 500 245 498 l 213 498 q 205 506 209 498 l 205 511 q 259 544 205 517 q 330 829 330 818 l 327 829 q 72 688 234 798 q -161 495 -33 617 l -164 490 l -161 476 l -208 444 l -218 452 q -61 606 -199 487 q 313 845 149 770 q 349 902 343 845 q 359 924 354 924 m 283 549 q 533 606 469 606 q 680 780 680 702 l 680 812 q 579 888 662 888 l 544 888 q 351 840 469 886 q 281 549 281 562 l 283 549 m 297 530 q 444 568 328 530 l 444 571 l 435 571 q 297 533 402 571 l 297 530 z "},"C":{"ha":650,"x_min":0,"x_max":727,"o":"m 716 939 l 727 931 q 618 790 640 825 q 575 673 618 731 l 556 663 q 534 684 534 669 q 600 798 539 715 q 537 893 600 893 l 526 893 q 228 720 403 893 q 19 269 19 478 q 106 120 19 156 q 155 112 136 112 l 195 112 q 643 304 338 112 q 700 340 688 340 l 703 334 l 703 332 q 217 93 435 132 q 174 90 178 90 q 14 191 60 90 q 0 267 0 233 l 0 269 q 228 744 0 488 q 524 912 407 912 l 529 912 q 610 850 587 912 q 621 825 615 825 q 716 939 676 897 m 553 684 l 556 684 q 591 747 577 684 l 591 749 l 589 749 q 553 684 558 715 z "},"D":{"ha":846,"x_min":-136,"x_max":794,"o":"m 645 924 q 791 810 768 924 q 794 780 791 795 q 599 362 794 616 q 425 218 468 231 q 224 148 307 148 q 159 202 159 158 q 235 335 159 256 q 412 430 292 385 q 599 468 554 468 q 604 460 602 460 q 512 438 604 448 q 311 368 384 406 q 181 218 199 300 l 181 189 q 227 167 191 167 q 558 343 366 167 q 778 780 778 599 q 642 905 778 905 q 284 742 505 905 q 135 178 168 256 l 130 178 q 121 180 124 180 l 121 191 q 159 311 140 244 q 260 723 260 707 l 254 723 q -128 400 113 626 l -136 400 l -136 408 q 257 745 169 698 q 300 875 272 745 l 306 878 l 311 878 q 317 872 317 877 l 295 780 q 298 777 298 780 q 645 924 519 924 z "},"E":{"ha":938,"x_min":-153,"x_max":922,"o":"m 913 898 q 922 895 919 895 l 922 887 q 897 876 922 881 l 870 879 q 355 806 387 814 q 300 583 300 596 l 303 583 q 867 656 776 656 q 876 654 873 654 l 876 648 q 767 632 876 640 q 292 556 292 566 l 189 157 q 195 149 192 149 q 843 255 708 236 q 854 247 854 251 l 854 244 q 819 231 854 239 l 805 233 q 181 125 235 138 q 173 117 181 117 q 159 122 164 122 q -98 79 43 106 q -106 81 -104 81 l -106 92 q 170 146 149 138 q 273 548 262 516 q 268 556 271 556 q -144 491 136 540 q -153 494 -150 494 l -153 505 l 279 578 q 333 803 333 783 q 59 768 292 803 q 51 770 54 770 l 51 781 q 341 827 235 808 q 360 879 354 879 l 366 879 q 371 873 371 878 q 366 830 366 854 q 913 898 871 898 z "},"F":{"ha":796,"x_min":-203,"x_max":960,"o":"m 952 987 q 960 984 958 984 l 960 976 q 936 965 960 970 q 914 968 934 965 q 307 870 823 957 l 206 509 q 209 507 209 509 q 681 561 531 547 q 692 553 692 557 l 692 547 q 562 531 692 538 q 198 485 224 490 q 100 168 110 175 l 92 168 q 90 176 92 170 q 179 474 174 465 q 174 482 176 482 q -106 450 71 474 q -114 452 -111 452 l -114 463 q 187 509 187 503 q 285 862 285 854 l 285 867 l 282 867 q -195 791 155 851 q -203 794 -201 794 l -203 805 l 293 889 q 309 927 304 927 l 315 927 q 320 922 320 926 q 315 895 320 919 q 952 987 786 968 z "},"G":{"ha":862,"x_min":-3,"x_max":1066,"o":"m 640 988 q 703 928 703 981 l 703 926 q 605 714 699 848 l 594 722 q 684 926 684 863 l 684 937 q 654 966 678 966 l 629 966 q 206 749 470 962 q 14 410 14 566 l 14 370 q 149 253 14 271 l 171 253 q 594 462 390 253 q 667 554 650 526 l 667 565 q 155 470 165 470 l 152 475 l 152 481 q 448 541 152 490 q 678 589 661 582 q 692 614 686 614 l 700 614 q 703 606 700 611 q 700 595 700 601 q 705 589 701 589 q 1063 654 1048 654 l 1066 649 l 1066 646 q 741 581 1066 639 q 686 554 686 576 q 532 52 532 103 l 521 44 l 518 44 q 510 55 514 44 q 643 486 558 234 l 635 486 q 461 326 529 365 q 168 234 299 234 l 165 234 q 0 351 28 234 q -3 378 -3 365 l -3 405 q 304 847 -3 620 q 640 988 524 988 z "},"H":{"ha":748,"x_min":-311,"x_max":1035,"o":"m 731 943 l 736 943 q 742 935 742 943 q 663 667 680 736 q 669 664 669 667 q 994 710 901 710 l 997 710 q 1035 691 1035 710 q 1027 680 1031 680 l 1024 680 l 1010 694 l 989 694 q 655 642 887 694 q 514 59 585 383 l 509 56 l 506 56 q 498 67 502 56 q 633 637 563 358 l 631 637 q 302 564 365 585 l 199 176 l 189 176 q 186 184 189 178 q 281 558 281 552 l 278 558 q 275 561 275 558 q -302 425 -77 482 q -311 428 -308 428 l -311 436 q -94 490 -311 443 q 289 585 254 572 q 365 862 357 862 l 370 862 q 376 857 376 861 q 308 596 313 604 q 313 588 311 588 q 642 661 629 656 q 731 943 722 943 z "},"I":{"ha":411,"x_min":-332,"x_max":886,"o":"m 875 960 q 886 951 886 956 l 886 949 q 861 938 886 944 l 856 941 l -302 783 q -311 786 -308 786 l -311 797 q 875 960 38 851 m 330 824 l 335 824 q 340 819 340 823 l 167 154 l 170 154 q 810 252 486 200 q 818 249 815 249 l 818 238 l 161 132 q 151 116 155 116 l 148 116 q 140 130 142 116 l -324 59 q -332 62 -330 62 l -332 73 l 145 151 q 324 821 151 163 l 330 824 z "},"J":{"ha":621,"x_min":-116,"x_max":1091,"o":"m 1069 1080 q 1091 1069 1091 1074 l 1091 1066 q 1086 1061 1091 1061 q 1072 1063 1077 1061 q 608 1001 882 1047 q 386 296 503 537 q 134 43 255 43 l 125 43 q 3 179 22 43 l 3 201 q 93 532 3 328 l 98 532 q 104 526 104 531 l 104 524 q 20 201 20 323 l 20 190 q 90 68 20 94 q 123 62 109 62 l 134 62 q 578 949 363 62 q 584 998 584 966 q -108 901 243 955 q -116 903 -113 903 l -116 914 q 1069 1080 962 1080 z "},"K":{"ha":543,"x_min":-120,"x_max":970,"o":"m 832 975 q 838 969 838 974 l 838 966 q 151 581 692 882 q 347 462 151 572 q 932 115 637 282 l 938 117 q 970 96 954 117 l 962 85 q 192 532 807 163 q 127 568 136 568 q 18 193 26 212 l 7 193 q 5 201 7 196 l 102 549 l 97 551 q -104 435 -75 461 q -109 432 -109 435 l -120 440 q 40 538 -119 454 q 113 587 109 578 q 205 904 197 886 l 216 904 q 219 896 216 901 q 138 603 138 609 l 138 597 q 743 928 144 597 q 832 975 825 975 z "},"L":{"ha":468,"x_min":-302,"x_max":1078,"o":"m 273 973 q 278 968 278 972 q 85 235 94 277 l 88 235 l 1065 382 q 1078 374 1068 382 q 1043 357 1078 362 l 1024 360 q 77 211 133 224 q 56 151 62 151 l 47 151 q 45 159 47 154 q 56 205 56 199 l 56 208 l 53 208 q -294 157 18 208 q -302 159 -300 159 l -302 170 q 64 233 -13 216 q 264 973 256 954 l 273 973 z "},"M":{"ha":910,"x_min":-28,"x_max":875,"o":"m 842 1037 l 845 1037 q 875 969 875 1021 l 875 957 q 693 184 875 766 l 688 182 l 685 182 q 677 197 677 184 l 677 204 q 696 234 677 212 q 859 952 859 781 l 859 975 q 842 1019 856 1019 l 831 1019 q 514 505 724 991 q 471 385 490 452 q 452 374 461 374 l 446 382 q 500 742 500 516 q 457 889 500 889 l 449 889 q 178 567 374 889 q -18 192 55 346 l -23 192 q -28 199 -28 192 q 191 989 -18 250 l 202 989 q 205 985 202 985 q 18 312 18 319 l 18 304 l 20 304 q 294 774 174 614 q 454 909 389 897 q 519 739 519 909 l 519 737 q 506 542 519 649 l 509 542 q 590 714 514 547 q 780 1009 707 942 q 842 1037 809 1037 z "},"N":{"ha":794,"x_min":-26,"x_max":741,"o":"m 677 1046 q 741 929 734 1046 l 741 919 q 603 187 741 758 q 595 182 595 184 q 585 195 588 183 q 698 692 600 228 q 723 921 723 841 q 690 1025 722 1012 l 667 1025 q 222 558 551 1025 q -19 177 81 339 l -21 177 q -26 184 -26 177 q 136 848 -21 218 l 146 848 q 148 842 146 842 q 2 243 20 325 l 4 243 q 379 797 195 559 q 677 1046 582 1046 z "},"O":{"ha":663,"x_min":-9,"x_max":1011,"o":"m 246 1014 l 260 1014 q 550 884 413 1014 q 593 810 570 856 q 1003 935 646 810 l 1006 935 q 1011 930 1011 935 l 1011 927 q 661 810 938 886 q 599 791 605 798 l 607 724 q 458 382 607 572 q 149 192 286 192 q -1 333 49 192 q -9 412 -9 380 q 108 789 -9 576 l 108 791 q 43 878 43 824 q 181 1006 43 956 q 246 1014 224 1014 m 62 873 q 119 808 62 831 q 219 930 173 885 l 230 922 q 138 802 188 873 l 138 800 q 298 772 182 772 q 572 808 433 772 l 572 813 q 414 960 534 904 q 254 995 331 995 q 64 895 108 995 q 62 873 62 884 m 309 753 l 281 753 q 124 781 211 753 q 10 406 10 583 q 116 216 10 258 q 154 211 136 211 q 441 390 279 211 q 591 724 591 568 q 577 789 587 789 q 309 753 418 753 z "},"P":{"ha":700,"x_min":-273,"x_max":695,"o":"m 516 974 q 690 844 646 974 q 695 806 695 823 l 695 789 q 484 510 695 642 q 264 448 354 448 q 218 472 229 448 q 527 627 218 523 q 538 629 533 627 q 546 627 543 627 l 546 618 q 416 570 543 611 q 237 472 237 498 q 267 467 241 469 q 600 618 431 467 q 676 792 676 711 l 676 803 q 538 952 676 930 l 511 955 q 296 911 372 943 q 108 233 113 244 l 97 233 q 94 241 97 236 q 275 903 275 897 l 272 903 q -262 643 22 821 l -268 643 q -273 648 -273 643 l -273 651 q 296 933 -1 827 q 516 974 448 974 z "},"Q":{"ha":746,"x_min":-107,"x_max":1095,"o":"m 422 975 l 435 975 q 636 771 582 975 q 650 642 650 689 q 579 368 650 506 l 557 337 l 557 331 l 560 331 q 1084 454 571 331 q 1095 445 1095 449 l 1095 441 q 1065 426 1095 435 q 1054 429 1055 429 q 517 297 642 334 q 319 216 425 216 l 300 216 q 229 226 282 216 l -99 146 q -107 149 -104 149 l -107 158 q 164 232 -107 165 q 186 241 186 234 q 42 466 42 330 q 270 885 42 644 q 321 928 275 885 l 321 931 q 180 848 262 914 q 172 851 175 851 l 172 861 q 384 971 249 940 q 422 975 401 975 m 64 479 l 64 451 q 227 250 64 313 l 232 250 q 530 331 530 317 q 628 621 628 453 l 628 669 q 500 941 628 873 q 425 953 461 953 l 403 953 q 357 919 395 953 q 153 719 301 914 q 64 479 64 574 m 294 238 l 308 238 q 463 278 393 238 l 463 281 l 454 281 q 294 238 294 248 z "},"R":{"ha":602,"x_min":-193,"x_max":1017,"o":"m 434 970 q 572 891 536 970 q 581 848 581 863 l 581 834 q 307 495 581 646 q 149 433 215 454 l 149 430 q 971 151 642 256 q 1017 132 1002 151 l 1009 121 l 106 422 l 52 218 l 46 218 q 38 229 42 218 q 84 406 81 401 q 81 414 81 411 l -24 395 q -33 397 -30 397 l -33 406 q 87 435 -33 411 q 201 888 95 444 l 198 888 q -122 731 163 888 l -182 693 l -187 693 q -193 699 -193 693 l -193 701 q 217 918 -14 821 q 434 970 365 970 m 114 444 q 363 547 176 449 q 562 831 562 680 l 562 850 q 505 937 562 912 q 453 948 481 948 l 420 948 q 222 899 342 948 q 111 444 111 450 l 114 444 z "},"S":{"ha":680,"x_min":-92,"x_max":635,"o":"m 545 1002 q 635 913 635 990 l 635 905 q 553 726 635 836 l 543 734 q 616 905 616 844 l 616 924 q 562 981 605 981 l 524 981 q 244 848 419 981 q 127 647 127 730 l 127 639 q 290 563 127 563 l 477 563 q 594 509 594 563 q 271 259 594 384 q 46 221 136 221 l 43 221 q -92 270 -74 221 l -92 278 q 222 481 -86 344 l 236 481 q 241 476 241 481 l 241 473 q 90 400 237 466 q -76 286 -29 342 l -76 275 q 46 240 -76 240 q 486 384 261 240 q 572 495 569 448 l 572 514 q 475 544 572 544 l 315 541 q 109 647 109 541 q 293 907 109 760 q 545 1002 448 1002 z "},"T":{"ha":341,"x_min":-413,"x_max":922,"o":"m 913 987 l 916 987 q 922 981 922 986 l 922 979 q 881 962 922 971 l 867 968 q 292 873 633 932 q 116 208 170 437 q 119 200 116 205 q 102 170 112 176 q 92 178 92 174 q 271 870 116 293 l 268 870 q -405 759 -37 821 q -413 762 -410 762 l -413 772 l 279 892 q 287 905 281 905 l 292 905 l 303 895 q 913 987 800 976 z "},"U":{"ha":663,"x_min":-3,"x_max":643,"o":"m 629 959 l 635 959 q 643 951 637 959 q 559 636 618 912 q 472 205 472 250 l 475 194 q 461 164 472 172 q 450 180 450 167 q 583 826 488 425 l 583 831 l 581 831 q 239 332 422 552 q 84 224 133 224 q 3 327 27 224 q -3 403 -3 365 q 84 867 -3 572 l 92 867 q 98 859 98 867 q 16 397 16 565 q 71 245 16 268 l 92 245 q 448 644 182 245 q 616 948 614 907 l 629 959 z "},"V":{"ha":448,"x_min":2,"x_max":564,"o":"m 553 961 l 558 961 q 564 956 564 960 l 564 950 q 534 901 564 932 q 173 291 334 522 q 78 207 105 207 l 67 207 q 16 345 37 207 q 2 654 2 475 l 2 657 q 5 850 2 725 q 13 861 9 861 l 18 861 q 26 850 21 861 l 24 831 q 21 649 24 732 q 78 226 21 226 q 195 351 118 239 q 547 958 328 553 l 553 961 z "},"W":{"ha":746,"x_min":-26,"x_max":761,"o":"m 750 960 l 753 960 q 761 949 757 960 q 677 628 760 880 q 517 327 591 414 q 427 267 459 267 q 321 393 347 267 q 313 471 316 417 q 335 683 313 531 q 267 535 327 677 q 28 214 110 214 q -26 315 -26 214 q 91 894 -26 467 l 102 894 q 104 888 102 888 q -7 338 -7 484 l -7 304 q 26 235 -7 235 l 28 235 q 368 821 134 235 l 373 825 l 378 825 q 384 819 384 823 q 335 492 335 614 l 335 454 q 397 292 335 326 l 416 290 l 435 290 q 620 538 503 290 q 734 888 734 809 l 734 891 l 728 899 l 728 903 q 750 960 739 960 z "},"X":{"ha":523,"x_min":-269,"x_max":653,"o":"m 642 951 l 653 943 q 612 911 653 924 q 271 599 510 825 l 271 591 q 526 186 496 227 q 547 149 535 186 q 542 143 547 143 l 536 143 q 257 580 465 244 l 254 580 q -256 102 236 570 l -261 100 l -264 100 q -269 105 -269 100 l -269 108 l 243 599 l 243 602 l 89 851 q 92 859 92 857 l 100 859 q 257 615 104 859 l 262 615 q 642 951 607 937 z "},"Y":{"ha":578,"x_min":-4,"x_max":628,"o":"m 617 985 l 623 985 q 628 980 628 985 l 628 977 q 587 877 606 934 q 435 440 509 635 q 438 437 438 440 q 473 467 442 437 l 484 459 l 416 389 q 210 -2 269 12 q 172 -16 210 -11 q 132 41 138 -16 q 392 389 132 146 q 528 749 410 412 q 555 842 555 836 q 425 649 549 838 q 88 332 195 332 q 1 440 20 332 l -4 494 q 66 882 -4 627 l 72 885 l 80 885 q 83 877 80 882 q 18 508 18 646 l 18 481 q 61 356 18 385 l 80 353 l 99 353 q 514 814 213 353 q 598 969 598 947 l 617 985 m 151 41 l 151 36 q 167 3 151 13 l 178 3 q 381 348 250 3 q 378 351 378 348 q 151 41 151 140 z "},"Z":{"ha":680,"x_min":-63,"x_max":1103,"o":"m 767 955 l 772 952 l 797 952 l 810 949 l 810 939 q 724 892 763 939 l -9 209 l -9 203 l -6 203 q 1090 342 549 288 l 1093 342 l 1103 334 q 1071 320 1103 320 q 1060 326 1060 320 q -39 182 631 277 q -47 184 -44 184 l -47 193 q 724 914 39 278 l 732 925 l 732 928 q 184 876 225 882 q 181 879 181 876 q -55 857 171 879 q -63 860 -60 860 l -63 871 q 762 949 208 901 l 767 955 z "},"[":{"ha":261,"x_min":0,"x_max":0,"o":""},"\\":{"ha":355,"x_min":0,"x_max":0,"o":""},"]":{"ha":261,"x_min":0,"x_max":0,"o":""},"^":{"ha":201,"x_min":0,"x_max":0,"o":""},"_":{"ha":269,"x_min":0,"x_max":0,"o":""},"`":{"ha":80,"x_min":0,"x_max":0,"o":""},"a":{"ha":190,"x_min":-43,"x_max":195,"o":"m 73 586 q 100 562 86 586 q 84 483 84 506 q 95 469 90 471 q 190 545 128 469 l 195 545 l 195 534 q 95 453 138 453 q 68 494 74 453 l 65 494 q -19 434 7 434 q -43 461 -43 439 q 60 583 -43 531 l 73 586 m -27 464 l -27 458 q -19 450 -27 454 q 84 556 37 463 l 84 559 q 73 570 84 563 q -14 505 34 570 q -27 464 -27 479 z "},"b":{"ha":221,"x_min":-24,"x_max":234,"o":"m 123 1019 l 131 1019 l 134 1008 q 12 536 87 878 q 44 572 16 536 q 93 596 71 595 q 134 547 134 596 q 87 460 134 503 l 87 458 q 226 545 152 458 l 229 545 q 234 539 234 544 l 234 534 q 79 441 168 441 q 14 469 41 441 l 14 471 q 20 477 15 477 l 47 469 l 58 469 q 117 542 102 469 l 117 555 q 101 580 117 572 l 90 580 q -13 460 52 580 l -21 460 q -24 466 -21 466 q 117 1017 77 878 l 123 1019 z "},"c":{"ha":169,"x_min":-37,"x_max":184,"o":"m 66 583 q 87 561 87 580 q 55 507 84 537 l 44 515 q 68 561 68 551 l 63 561 q -16 474 9 561 l -16 455 q 20 436 -4 436 l 39 436 q 173 547 83 436 l 181 547 q 184 542 181 542 q 47 417 133 446 q 28 414 31 417 q -35 466 -35 425 l -37 466 q 44 577 -37 524 q 66 583 66 577 z "},"d":{"ha":225,"x_min":-26,"x_max":237,"o":"m 227 1013 l 232 1013 q 237 1005 237 1013 q 208 888 237 989 q 120 573 119 600 q 100 471 111 530 l 100 457 q 117 449 103 449 q 225 547 159 449 l 233 547 q 236 541 233 541 q 117 430 172 430 q 90 505 69 431 l 68 475 q 20 442 45 456 q -26 486 -20 442 q 40 586 -23 550 q 103 566 102 623 q 129 681 109 604 q 227 1013 210 989 m -9 501 q 18 463 -16 457 q 84 524 56 477 q 86 540 86 532 q 68 577 87 587 q -9 501 16 565 z "},"e":{"ha":130,"x_min":-27,"x_max":144,"o":"m 43 566 l 46 566 q 68 553 61 566 l 68 545 q -3 509 68 532 q -8 485 -8 492 l -8 477 q 8 460 -3 466 l 38 460 q 133 542 80 460 l 138 542 q 144 534 144 542 q 27 439 84 439 q -27 485 -27 446 q 43 566 -6 566 m 9 526 l 26 536 l 45 548 l 31 547 q 9 526 18 545 z "},"f":{"ha":125,"x_min":-91,"x_max":137,"o":"m 96 826 l 104 826 q 121 791 114 826 q 31 566 121 723 l 31 560 q 50 511 50 543 l 50 500 q 56 495 51 495 l 61 495 q 129 544 94 495 l 132 544 q 137 538 137 543 l 137 533 q 53 479 102 479 l 50 479 l 50 476 q -61 77 12 77 l -72 77 q -91 129 -91 90 q 66 772 -91 287 q 96 826 87 820 m 31 604 l 31 601 l 34 601 q 104 796 104 728 l 99 799 q 31 604 69 749 m 26 536 l 26 528 l 28 514 l 34 514 l 34 522 l 31 536 l 26 536 m 7 525 q -75 123 -75 250 l -75 118 q -64 94 -75 97 q 23 359 -15 98 q 34 481 34 426 q 7 525 22 498 z "},"g":{"ha":153,"x_min":-113,"x_max":164,"o":"m 56 580 q 88 547 77 580 q 80 536 84 536 q 61 564 77 536 l 53 564 q -7 498 9 564 l -7 490 q 7 469 -7 475 l 9 469 q 77 531 43 469 l 80 531 q 88 523 82 531 q 66 412 66 428 q 156 550 69 412 q 164 547 161 547 l 164 539 q 42 311 42 347 q -94 -9 -28 -9 q -113 24 -113 -2 q 37 355 -113 111 q 61 474 61 463 l 56 474 q 12 452 28 452 q -23 496 -18 452 q 56 580 -2 580 m 15 287 q -96 21 -96 107 l -94 7 l -85 7 q -4 186 -52 21 q 18 281 18 270 l 18 287 l 15 287 z "},"h":{"ha":208,"x_min":-33,"x_max":217,"o":"m 122 1033 l 125 1033 q 130 1027 130 1032 l 130 1025 q 95 892 130 1007 l 0 477 l 3 477 q 98 569 66 569 q 114 550 114 563 q 103 493 103 505 l 103 477 q 111 469 103 473 l 117 469 q 209 545 152 469 l 212 545 q 217 539 217 544 l 217 536 q 117 452 162 452 q 87 485 89 452 l 87 488 l 98 550 l 87 550 q -5 428 28 503 q -24 395 -20 395 l -27 395 q -33 404 -33 395 q 117 1030 57 803 l 122 1033 z "},"i":{"ha":130,"x_min":-20,"x_max":143,"o":"m 40 634 l 48 634 q 54 629 54 633 l 54 623 q 35 602 38 602 l 32 602 q 21 621 21 606 q 40 634 21 624 m 13 572 l 21 572 q 24 564 21 569 q -1 463 -1 494 l -1 439 l 10 439 q 132 545 43 439 l 140 545 q 143 539 140 539 q -1 420 60 420 l -3 420 q -20 455 -20 427 q 13 572 1 572 z "},"j":{"ha":78,"x_min":-177,"x_max":92,"o":"m 18 641 l 24 641 q 32 627 28 641 q 24 614 28 614 l 18 614 q 7 627 16 614 q 18 641 13 640 m 7 573 l 13 573 q 18 568 18 572 l -6 443 l -3 443 q 83 549 75 544 l 86 549 q 92 543 92 548 l 92 538 q -28 351 -28 387 q -142 3 -102 3 q -150 1 -144 3 q -177 47 -177 1 l -177 50 q -36 391 -177 142 q 7 573 0 573 m -158 41 q -150 20 -158 22 l -147 20 q -58 307 -119 20 l -58 310 q -125 174 -66 310 q -158 41 -158 98 z "},"k":{"ha":134,"x_min":-37,"x_max":153,"o":"m 115 1010 q 125 1002 125 1006 l 125 991 q 14 547 106 965 l 20 547 l 79 590 l 90 582 q 17 522 90 576 l 17 517 q 60 476 54 476 l 71 476 q 139 549 98 476 l 150 549 q 153 544 150 544 q 68 454 107 454 q 6 500 53 454 q -24 400 0 493 l -29 400 q -37 408 -31 400 q 106 1005 63 846 q 115 1010 115 1008 z "},"l":{"ha":122,"x_min":-14,"x_max":168,"o":"m 157 976 q 168 959 163 976 q 7 517 132 849 q 2 480 2 499 l 8 459 q 22 448 14 448 q 121 548 49 448 l 123 548 q 129 542 129 547 l 128 534 q 18 428 62 428 q -14 485 -9 428 q -1 568 -10 545 q 54 779 12 648 q 146 976 104 937 l 157 976 m 132 927 q 20 597 91 841 l 60 708 q 135 924 121 874 l 135 927 l 132 927 z "},"m":{"ha":267,"x_min":-27,"x_max":279,"o":"m 149 560 l 155 560 q 165 538 165 556 q 149 454 149 470 l 149 444 q 155 438 150 438 l 157 438 q 271 544 184 438 l 274 544 q 279 538 279 543 l 279 533 q 155 419 196 419 q 130 452 134 419 l 130 454 l 146 538 l 141 538 q 60 446 129 535 l 54 446 q 49 452 49 446 q 60 519 60 500 l 54 519 q -16 444 45 515 l -24 444 q -27 449 -24 449 q 5 555 -4 544 l 11 555 q 16 549 16 554 l 5 500 l 11 500 q 62 541 45 541 l 65 541 q 79 514 79 535 l 79 503 l 81 503 q 149 560 131 560 z "},"n":{"ha":173,"x_min":-22,"x_max":184,"o":"m 78 564 l 86 564 q 100 545 100 556 q 92 488 92 501 l 92 472 l 97 472 q 173 548 119 472 l 181 548 q 184 543 181 543 q 100 453 141 465 l 89 453 q 73 483 73 462 q 81 545 73 493 l 73 545 q -12 450 48 529 l -17 450 q -22 456 -22 450 q 5 553 -3 553 l 10 553 q 16 545 16 553 q 10 513 10 522 l 18 513 q 78 564 56 564 z "},"o":{"ha":153,"x_min":-20,"x_max":167,"o":"m 34 562 q 80 510 75 562 l 83 510 q 156 545 104 510 l 161 545 q 167 540 167 545 l 167 537 q 69 483 156 515 q 15 434 42 434 q -20 480 -20 443 q 34 562 -6 562 m 28 540 l 28 534 q 61 510 33 510 l 61 518 q 28 540 52 549 m 9 518 q -1 476 -3 493 q 9 456 1 460 l 18 456 q 53 491 41 456 q 9 518 39 496 z "},"p":{"ha":191,"x_min":-149,"x_max":198,"o":"m 90 569 q 117 531 113 569 l 117 528 q 92 469 117 498 l 95 463 q 190 545 121 463 l 198 545 l 198 536 q 35 433 127 433 q 3 441 4 441 l 0 441 q -106 48 -24 400 q -133 -17 -122 -17 l -141 -17 q -149 -1 -149 -14 l -149 2 q -24 447 -149 79 q 8 561 1 561 l 14 561 q 19 555 19 560 q 8 501 8 511 l 8 496 l 11 496 q 90 569 62 569 m 14 460 q 19 455 14 455 l 33 455 q 100 526 83 455 l 100 539 q 92 547 100 543 l 87 547 q 14 460 54 547 z "},"q":{"ha":162,"x_min":-35,"x_max":174,"o":"m 52 580 q 87 545 87 571 q 84 536 84 539 l 73 536 q 57 564 73 554 l 46 564 q -3 498 -3 555 l -3 493 q 11 466 -3 473 l 27 466 q 76 526 45 473 l 84 526 q 87 520 84 520 q 68 450 68 458 l 81 447 q 163 542 119 447 l 174 542 l 174 536 q 76 431 133 431 l 76 433 q 60 338 60 433 q -16 13 24 13 q -35 43 -35 16 l -35 51 q 52 460 -35 122 l 46 460 q 14 450 33 450 q -19 496 -13 450 q 52 580 -9 580 m -19 56 l -19 35 l -16 35 q 43 347 11 35 q -11 130 34 347 q -19 56 -19 82 z "},"r":{"ha":169,"x_min":-26,"x_max":177,"o":"m -10 605 q 22 556 10 605 l 31 556 q 82 564 45 556 q 87 559 87 564 l 87 556 q 66 477 66 497 l 66 458 q 74 450 66 454 l 85 450 q 169 545 113 450 l 172 545 q 177 540 177 545 l 177 537 q 93 437 149 465 q 77 434 89 434 q 50 467 52 434 l 50 472 q 63 540 50 484 l 63 543 l 60 543 q 31 540 54 543 l 14 543 q 3 532 14 540 q -5 534 -2 534 l -5 548 q -26 583 -26 570 l -26 594 q -10 605 -21 605 m -10 586 l -10 578 q -2 570 -10 574 l 1 570 l 1 578 q -7 586 1 582 l -10 586 z "},"s":{"ha":121,"x_min":-20,"x_max":129,"o":"m 18 618 l 23 618 q 31 604 28 618 l 12 550 q 64 488 64 498 l 72 488 q 121 547 77 489 l 129 547 l 129 545 q 69 460 129 528 q 26 422 69 426 q -15 458 -15 435 q 50 477 50 471 q -9 545 50 500 q -20 577 -20 566 q 18 618 -20 603 m 7 596 q -4 574 -4 585 l -4 572 q 1 566 -3 566 l 12 593 l 7 596 m 15 450 l 15 444 q 20 439 16 439 l 39 439 q 53 452 43 439 l 53 455 q 15 450 44 455 z "},"t":{"ha":140,"x_min":-158,"x_max":408,"o":"m 122 1002 l 127 1002 q 135 991 132 1002 q 114 943 134 979 q 81 823 85 846 l 84 823 q 391 829 303 829 q 407 821 408 826 l 407 815 q 374 804 406 809 q 355 812 361 812 q 78 807 308 812 q 7 519 5 550 l 1 457 q 24 413 3 409 q 145 547 45 409 l 156 547 l 156 542 q 22 392 59 392 q -18 462 -13 392 l -13 515 l -6 547 l 56 804 l 54 804 q -150 799 -23 804 q -158 802 -155 802 l -157 812 q -149 815 -155 812 q 57 821 -9 821 q 88 910 69 821 q 122 1002 115 1001 z "},"u":{"ha":188,"x_min":-17,"x_max":197,"o":"m 105 585 l 108 585 q 113 577 113 585 q 105 507 105 534 l 105 496 q 116 471 105 475 l 119 471 q 186 545 145 471 l 192 545 q 197 536 197 545 q 121 455 159 463 l 119 455 q 89 504 89 455 l 89 517 l 81 517 q 5 450 47 450 q -17 482 -17 458 q 7 558 -8 541 l 16 558 l 16 553 q -1 477 -1 498 q 7 466 3 466 l 13 466 q 105 585 41 466 z "},"v":{"ha":173,"x_min":-9,"x_max":184,"o":"m 102 600 l 105 600 q 116 589 109 600 l 116 583 q 92 518 116 572 q 100 510 92 514 l 121 510 q 176 551 140 510 l 178 551 q 184 545 184 550 q 132 494 184 524 q 113 488 113 492 q 78 499 82 499 q 16 429 29 429 q -9 477 -9 437 q 5 567 -6 567 l 13 567 q 16 562 13 562 q 13 559 16 559 q 10 486 10 509 l 10 464 q 16 450 11 450 q 67 518 26 450 l 67 521 q 62 543 67 529 q 102 600 73 600 m 86 567 l 86 556 l 89 556 q 94 567 89 560 l 94 575 q 86 567 90 575 z "},"w":{"ha":240,"x_min":-17,"x_max":252,"o":"m 16 575 l 24 575 q 26 567 24 572 q 5 477 5 505 l 5 453 q 10 448 5 448 q 75 534 34 448 l 83 534 q 89 529 89 534 l 89 494 q 100 461 89 461 q 140 518 140 500 q 135 551 135 543 q 154 575 135 566 q 173 553 173 566 q 165 521 165 530 q 173 513 165 517 l 189 513 q 243 548 205 513 l 246 548 q 252 543 252 547 l 252 537 q 184 494 216 494 l 181 494 q 151 499 178 494 q 97 442 119 443 l 94 442 q 70 480 70 458 q 37 439 65 480 q 13 429 19 429 l 10 429 q -17 467 -17 429 q 16 575 -3 557 z "},"x":{"ha":186,"x_min":-50,"x_max":202,"o":"m 121 598 l 132 598 q 134 590 132 595 q 91 544 134 583 l 47 490 l 47 484 q 88 454 68 454 l 99 454 q 189 547 138 454 l 199 547 q 202 541 199 541 q 96 435 151 435 l 96 433 q 34 471 71 433 l -42 387 l -45 387 q -50 392 -50 387 l -50 397 q 20 492 20 483 q -4 560 -4 546 l 1 563 l 7 563 q 31 509 13 563 l 39 509 q 121 598 100 581 z "},"y":{"ha":155,"x_min":-191,"x_max":1179,"o":"m 113 581 l 116 581 q 121 573 121 581 q -1 185 73 388 l 7 185 q 376 356 164 292 q 1101 473 774 473 l 1141 473 q 1179 459 1179 471 l 1179 456 q 1174 451 1179 451 q 1149 456 1156 456 l 1101 456 q 336 326 770 456 q 16 174 134 254 q -52 68 -18 159 q -169 -64 -114 -64 q -191 -35 -191 -55 q -28 163 -191 25 q 92 522 92 490 l 83 522 q 7 459 36 459 q -14 494 -14 465 q 7 554 -4 554 l 13 554 q 16 549 13 549 q 2 494 2 514 l 2 484 q 10 475 2 479 q 113 581 35 475 m -174 -35 l -174 -40 q -166 -48 -174 -44 l -161 -48 q -50 117 -117 -48 l -50 120 l -52 120 q -174 -35 -174 18 z "},"z":{"ha":172,"x_min":-89,"x_max":180,"o":"m 93 595 q 109 578 101 595 q 93 546 109 568 l 93 538 q 120 489 115 538 l 120 459 l 123 459 q 172 546 165 544 l 180 546 l 180 543 q 98 361 98 379 q -70 -54 -5 -54 q -89 -21 -86 -54 q 55 326 -89 57 q 104 497 104 403 l 104 500 q 87 524 104 516 l 77 524 q 47 500 74 524 l 44 500 q 39 505 39 500 l 39 511 q 93 578 93 562 l 87 578 q 6 538 45 578 l 3 538 q -2 543 -2 538 l -2 546 q 93 595 34 595 m 66 315 q -73 -24 -73 58 l -73 -35 l -70 -35 q 68 307 -23 -35 l 68 315 l 66 315 z "},"{":{"ha":177,"x_min":0,"x_max":0,"o":""},"|":{"ha":175,"x_min":0,"x_max":0,"o":""},"}":{"ha":177,"x_min":0,"x_max":0,"o":""},"~":{"ha":290,"x_min":0,"x_max":0,"o":""},"¡":{"ha":199,"x_min":0,"x_max":0,"o":""},"¢":{"ha":317,"x_min":11,"x_max":313,"o":"m 300 894 l 310 894 q 313 884 310 890 q 274 772 274 785 l 274 769 q 297 696 297 736 l 297 690 q 287 670 297 673 l 281 670 q 274 677 274 670 l 274 700 q 261 743 271 743 q 123 381 123 397 l 126 381 q 139 378 132 378 l 162 378 q 264 506 228 378 l 277 506 l 281 492 q 153 355 243 355 q 113 358 147 355 q 60 200 82 290 l 54 197 l 47 197 q 41 203 41 197 q 90 364 41 229 q 11 492 11 420 l 11 503 q 165 769 11 654 q 228 792 197 783 l 248 789 l 254 789 q 300 894 292 894 m 34 506 l 34 490 q 96 391 34 420 l 100 391 q 241 766 241 749 l 218 766 q 66 634 156 766 q 34 506 34 562 z "},"£":{"ha":350,"x_min":-16,"x_max":403,"o":"m 289 829 q 323 766 323 820 q 313 680 323 718 l 299 680 q 296 687 299 687 q 302 756 302 725 q 289 804 300 804 q 143 580 210 749 l 171 580 q 237 583 203 580 l 289 576 l 289 566 q 261 555 286 555 l 136 555 q 64 334 96 475 q 57 310 62 310 q 60 300 60 303 q 143 303 81 300 q 192 300 170 303 q 299 303 243 303 l 382 303 q 403 293 403 301 q 382 283 399 283 l 309 283 q 78 275 102 275 l 64 275 q 29 262 56 275 q -16 275 -16 267 l -16 283 q 33 300 -16 292 q 102 549 60 416 l 102 552 l 19 552 q -9 562 0 552 q 109 580 -9 580 l 113 580 q 289 829 238 829 z "},"¤":{"ha":688,"x_min":0,"x_max":0,"o":""},"¥":{"ha":341,"x_min":-42,"x_max":387,"o":"m 45 797 l 48 797 l 178 574 l 181 574 q 333 789 327 788 l 336 789 q 344 783 344 789 q 214 574 344 774 l 214 570 q 322 574 286 574 l 344 574 q 387 559 387 574 l 387 555 q 369 541 387 550 q 296 545 320 545 l 196 545 q 185 465 185 545 l 181 465 q 185 454 185 458 q 311 458 239 454 q 333 448 333 454 l 333 440 q 290 426 333 431 q 207 429 224 429 q 178 404 178 429 q 156 256 168 256 l 149 256 q 142 267 142 256 l 153 426 q 19 422 61 422 l 1 422 l -17 426 l -17 440 q 113 451 77 451 l 156 451 q 163 545 163 522 q 123 541 138 541 q 52 545 84 541 q -24 541 27 541 l -42 545 l -42 559 l -24 563 q 145 570 132 570 l 145 574 l 37 789 q 45 797 39 797 z "},"¦":{"ha":688,"x_min":0,"x_max":0,"o":""},"§":{"ha":688,"x_min":0,"x_max":0,"o":""},"¨":{"ha":308,"x_min":84,"x_max":267,"o":"m 267 789 q 230 824 267 819 l 213 806 q 243 767 226 767 q 266 781 266 773 l 267 789 m 137 795 q 100 829 138 825 l 84 811 q 115 772 97 772 q 137 785 136 778 l 137 795 z "},"©":{"ha":396,"x_min":9,"x_max":394,"o":"m 223 715 l 229 713 l 237 713 q 383 610 343 713 q 394 550 394 576 q 302 382 394 447 q 188 349 234 349 l 172 349 q 12 493 43 349 l 9 517 q 104 677 9 598 q 215 713 104 704 l 220 713 q 223 715 223 713 m 31 531 l 31 504 q 139 371 31 401 q 180 368 163 368 q 361 479 313 368 q 372 534 372 511 l 372 574 q 231 694 355 694 l 218 694 q 98 648 139 694 q 31 531 31 593 m 212 650 q 245 599 236 650 q 237 588 241 588 l 231 588 q 220 626 224 588 l 215 629 l 207 629 q 117 507 117 555 l 117 493 q 172 444 117 452 l 191 444 q 302 545 248 444 l 304 545 q 313 534 309 545 q 182 425 260 425 l 180 425 q 98 498 98 435 l 96 498 q 199 645 96 556 q 212 650 212 648 z "},"ª":{"ha":439,"x_min":0,"x_max":0,"o":""},"«":{"ha":640,"x_min":0,"x_max":0,"o":""},"¬":{"ha":688,"x_min":0,"x_max":0,"o":""},"®":{"ha":387,"x_min":0,"x_max":385,"o":"m 214 714 l 220 711 l 228 711 q 374 608 334 711 q 385 549 385 575 q 293 380 385 446 q 179 348 225 348 l 163 348 q 3 492 34 348 l 0 516 q 95 676 0 597 q 206 711 95 703 l 212 711 q 214 714 214 711 m 22 530 l 22 503 q 130 370 22 399 q 171 367 154 367 q 353 478 304 367 q 363 532 363 509 l 363 573 q 222 692 347 692 l 209 692 q 90 646 130 692 q 22 530 22 592 m 212 657 q 239 633 239 654 l 239 630 q 165 538 239 608 q 317 456 169 533 l 317 446 q 312 443 312 446 q 155 519 159 519 l 152 519 q 133 416 142 416 l 127 416 q 98 535 112 416 l 98 546 q 160 649 98 618 q 212 657 188 657 m 155 622 q 163 611 163 622 q 160 559 160 585 q 220 630 213 600 l 220 633 q 214 638 220 638 l 206 638 q 155 622 160 637 m 117 538 q 127 481 119 481 q 144 614 144 589 l 141 614 q 117 538 119 604 z "},"¯":{"ha":454,"x_min":0,"x_max":0,"o":""},"°":{"ha":457,"x_min":0,"x_max":0,"o":""},"±":{"ha":688,"x_min":0,"x_max":0,"o":""},"²":{"ha":688,"x_min":0,"x_max":0,"o":""},"³":{"ha":688,"x_min":0,"x_max":0,"o":""},"´":{"ha":80,"x_min":-7,"x_max":92,"o":"m 87 925 l 81 931 q 50 930 76 937 l 50 922 l 47 917 q -5 881 39 905 q -3 863 -7 866 l 0 860 q 90 916 13 847 q 87 925 92 921 z "},"µ":{"ha":800,"x_min":0,"x_max":0,"o":""},"¶":{"ha":694,"x_min":0,"x_max":0,"o":""},"·":{"ha":345,"x_min":0,"x_max":0,"o":""},"∙":{"ha":345,"x_min":0,"x_max":0,"o":""},"¸":{"ha":153,"x_min":4,"x_max":145,"o":"m 85 492 q 91 487 91 492 l 91 481 q 64 438 64 452 q 121 422 64 433 q 145 387 138 409 q 50 305 145 326 q 7 351 12 305 l 4 351 q 12 365 7 365 l 18 365 q 31 330 22 365 q 50 324 42 324 q 123 376 106 324 l 123 387 q 47 419 123 411 l 42 427 q 85 492 59 492 z "},"¹":{"ha":688,"x_min":0,"x_max":0,"o":""},"º":{"ha":487,"x_min":0,"x_max":0,"o":""},"»":{"ha":640,"x_min":0,"x_max":0,"o":""},"¼":{"ha":1158,"x_min":0,"x_max":0,"o":""},"½":{"ha":1332,"x_min":0,"x_max":0,"o":""},"¾":{"ha":1158,"x_min":0,"x_max":0,"o":""},"¿":{"ha":507,"x_min":0,"x_max":0,"o":""},"À":{"ha":747,"x_min":-321,"x_max":1016,"o":"m 547 975 q 572 954 574 975 q 559 935 559 938 q 577 623 570 623 q 1005 693 736 655 q 1015 685 1016 689 l 1015 680 l 1008 671 l 984 674 q 575 604 842 658 l 575 601 q 603 91 595 152 q 607 77 608 91 l 606 72 l 602 58 l 594 58 q 575 237 584 58 l 556 598 q 323 549 324 562 q 127 205 142 229 l 121 205 q 117 210 116 205 q 304 549 118 223 l 301 549 q -313 433 96 517 q -321 435 -319 435 l -320 444 q 125 533 -319 452 q 317 574 146 541 l 539 954 q 537 962 539 956 q 547 975 537 965 m 345 585 l 345 579 q 553 620 490 604 q 540 913 555 643 l 537 913 q 345 585 452 782 m 536 1102 q 532 1093 530 1099 q 609 1021 593 1010 l 612 1023 q 618 1040 617 1025 q 574 1086 579 1074 l 572 1091 l 573 1099 q 544 1107 550 1111 l 536 1102 z "},"Á":{"ha":747,"x_min":-321,"x_max":1016,"o":"m 547 975 q 572 954 574 975 q 559 935 559 938 q 577 623 570 623 q 1005 693 736 655 q 1015 685 1016 689 l 1015 680 l 1008 671 l 984 674 q 575 604 842 658 l 575 601 q 603 91 595 152 q 607 77 608 91 l 606 72 l 602 58 l 594 58 q 575 237 584 58 l 556 598 q 323 549 324 562 q 127 205 142 229 l 121 205 q 117 210 116 205 q 304 549 118 223 l 301 549 q -313 433 96 517 q -321 435 -319 435 l -320 444 q 125 533 -319 452 q 317 574 146 541 l 539 954 q 537 962 539 956 q 547 975 537 965 m 345 585 l 345 579 q 553 620 490 604 q 540 913 555 643 l 537 913 q 345 585 452 782 m 613 1078 l 607 1084 q 576 1084 602 1090 l 576 1076 l 573 1072 q 519 1038 565 1061 q 521 1019 516 1023 l 524 1016 q 615 1068 536 1003 q 613 1078 618 1074 z "},"Â":{"ha":747,"x_min":-321,"x_max":1016,"o":"m 547 975 q 572 954 574 975 q 559 935 559 938 q 577 623 570 623 q 1005 693 736 655 q 1015 685 1016 689 l 1015 680 l 1008 671 l 984 674 q 575 604 842 658 l 575 601 q 603 91 595 152 q 607 77 608 91 l 606 72 l 602 58 l 594 58 q 575 237 584 58 l 556 598 q 323 549 324 562 q 127 205 142 229 l 121 205 q 117 210 116 205 q 304 549 118 223 l 301 549 q -313 433 96 517 q -321 435 -319 435 l -320 444 q 125 533 -319 452 q 317 574 146 541 l 539 954 q 537 962 539 956 q 547 975 537 965 m 345 585 l 345 579 q 553 620 490 604 q 540 913 555 643 l 537 913 q 345 585 452 782 m 488 1048 q 563 1173 539 1119 q 562 1183 563 1175 q 571 1194 562 1192 l 574 1194 q 585 1183 581 1192 q 583 1172 585 1180 q 627 1041 586 1157 q 620 1034 627 1033 l 615 1034 q 589 1097 610 1039 q 571 1152 570 1153 l 575 1152 q 557 1123 575 1154 q 500 1040 515 1053 l 490 1040 q 488 1048 490 1044 z "},"Ã":{"ha":747,"x_min":-321,"x_max":1016,"o":"m 547 975 q 572 954 574 975 q 559 935 559 938 q 577 623 570 623 q 1005 693 736 655 q 1015 685 1016 689 l 1015 680 l 1008 671 l 984 674 q 575 604 842 658 l 575 601 q 603 91 595 152 q 607 77 608 91 l 606 72 l 602 58 l 594 58 q 575 237 584 58 l 556 598 q 323 549 324 562 q 127 205 142 229 l 121 205 q 117 210 116 205 q 304 549 118 223 l 301 549 q -313 433 96 517 q -321 435 -319 435 l -320 444 q 125 533 -319 452 q 317 574 146 541 l 539 954 q 537 962 539 956 q 547 975 537 965 m 345 585 l 345 579 q 553 620 490 604 q 540 913 555 643 l 537 913 q 345 585 452 782 m 520 1119 q 620 1053 536 1119 l 647 1053 q 690 1082 665 1053 l 693 1082 q 697 1076 697 1082 l 697 1071 q 640 1028 669 1028 q 536 1095 612 1028 l 511 1095 q 460 1049 491 1095 l 452 1059 q 517 1116 482 1116 q 520 1119 517 1119 z "},"Ä":{"ha":747,"x_min":-321,"x_max":1016,"o":"m 547 975 q 572 954 574 975 q 559 935 559 938 q 577 623 570 623 q 1005 693 736 655 q 1015 685 1016 689 l 1015 680 l 1008 671 l 984 674 q 575 604 842 658 l 575 601 q 603 91 595 152 q 607 77 608 91 l 606 72 l 602 58 l 594 58 q 575 237 584 58 l 556 598 q 323 549 324 562 q 127 205 142 229 l 121 205 q 117 210 116 205 q 304 549 118 223 l 301 549 q -313 433 96 517 q -321 435 -319 435 l -320 444 q 125 533 -319 452 q 317 574 146 541 l 539 954 q 537 962 539 956 q 547 975 537 965 m 345 585 l 345 579 q 553 620 490 604 q 540 913 555 643 l 537 913 q 345 585 452 782 m 631 1047 q 604 1074 632 1069 l 591 1059 q 614 1029 601 1029 q 631 1040 631 1034 l 631 1047 m 532 1051 q 505 1078 533 1074 l 492 1063 q 515 1033 501 1034 q 532 1043 532 1038 l 532 1051 z "},"Å":{"ha":747,"x_min":-321,"x_max":1016,"o":"m 547 975 q 572 954 574 975 q 559 935 559 938 q 577 623 570 623 q 1005 693 736 655 q 1015 685 1016 689 l 1015 680 l 1008 671 l 984 674 q 575 604 842 658 l 575 601 q 603 91 595 152 q 607 77 608 91 l 606 72 l 602 58 l 594 58 q 575 237 584 58 l 556 598 q 323 549 324 562 q 127 205 142 229 l 121 205 q 117 210 116 205 q 304 549 118 223 l 301 549 q -313 433 96 517 q -321 435 -319 435 l -320 444 q 125 533 -319 452 q 317 574 146 541 l 539 954 q 537 962 539 956 q 547 975 537 965 m 345 585 l 345 579 q 553 620 490 604 q 540 913 555 643 l 537 913 q 345 585 452 782 m 568 1105 q 623 1064 623 1095 l 623 1061 q 598 1007 623 1046 q 604 1002 604 1006 l 604 999 q 574 985 604 991 q 509 1050 509 998 q 568 1105 509 1090 m 530 1064 l 530 1042 q 549 1010 530 1021 l 555 1010 q 604 1056 586 1010 l 604 1069 q 576 1083 597 1083 l 563 1083 q 530 1064 540 1083 z "},"Æ":{"ha":1314,"x_min":-321,"x_max":1339,"o":"m 547 975 q 572 954 574 975 q 559 935 559 938 q 577 623 570 623 q 1005 693 736 655 q 1015 685 1016 689 l 1015 680 l 1008 671 l 984 674 q 575 604 842 658 l 575 601 q 603 91 595 152 q 607 77 608 91 l 606 72 l 602 58 l 594 58 q 575 237 584 58 l 556 598 q 323 549 324 562 q 127 205 142 229 l 121 205 q 117 210 116 205 q 304 549 118 223 l 301 549 q -313 433 96 517 q -321 435 -319 435 l -320 444 q 125 533 -319 452 q 317 574 146 541 l 539 954 q 537 962 539 956 q 547 975 537 965 m 345 585 l 345 579 q 553 620 490 604 q 540 913 555 643 l 537 913 q 345 585 452 782 m 1331 967 q 1339 964 1336 964 l 1339 956 q 1314 945 1339 950 l 1287 948 q 772 875 804 883 q 718 652 718 665 l 720 652 q 1284 726 1193 726 q 1293 723 1290 723 l 1293 718 q 1184 701 1293 709 q 709 625 709 635 l 606 227 q 612 218 609 218 q 1260 324 1125 305 q 1271 316 1271 320 l 1271 313 q 1236 300 1271 308 l 1222 302 q 598 194 652 208 q 590 186 598 186 q 576 191 581 191 l 587 216 q 690 617 680 585 q 685 625 688 625 l 696 647 q 750 872 750 852 l 758 897 q 777 948 771 948 l 783 948 q 788 943 788 947 q 783 899 783 924 q 1331 967 1288 967 z "},"Ç":{"ha":650,"x_min":0,"x_max":727,"o":"m 716 939 l 727 931 q 618 790 640 825 q 575 673 618 731 l 556 663 q 534 684 534 669 q 600 798 539 715 q 537 893 600 893 l 526 893 q 228 720 403 893 q 19 269 19 478 q 106 120 19 156 q 155 112 136 112 l 195 112 q 643 304 338 112 q 700 340 688 340 l 703 334 l 703 332 q 217 93 435 132 q 174 90 178 90 q 14 191 60 90 q 0 267 0 233 l 0 269 q 228 744 0 488 q 524 912 407 912 l 529 912 q 610 850 587 912 q 621 825 615 825 q 716 939 676 897 m 553 684 l 556 684 q 591 747 577 684 l 591 749 l 589 749 q 553 684 558 715 m 178 105 q 184 100 184 104 l 184 94 q 157 51 157 65 q 214 35 157 46 q 238 -1 231 22 q 143 -82 238 -62 q 100 -36 105 -82 l 97 -36 q 105 -22 100 -22 l 111 -22 q 124 -58 115 -22 q 143 -63 135 -63 q 216 -12 199 -63 l 216 -1 q 140 32 216 24 l 135 40 q 178 105 152 105 z "},"È":{"ha":938,"x_min":-153,"x_max":922,"o":"m 913 898 q 922 895 919 895 l 922 887 q 897 876 922 881 l 870 879 q 355 806 387 814 q 300 583 300 596 l 303 583 q 867 656 776 656 q 876 654 873 654 l 876 648 q 767 632 876 640 q 292 556 292 566 l 189 157 q 195 149 192 149 q 843 255 708 236 q 854 247 854 251 l 854 244 q 819 231 854 239 l 805 233 q 181 125 235 138 q 173 117 181 117 q 159 122 164 122 q -98 79 43 106 q -106 81 -104 81 l -106 92 q 170 146 149 138 q 273 548 262 516 q 268 556 271 556 q -144 491 136 540 q -153 494 -150 494 l -153 505 l 279 578 q 333 803 333 783 q 59 768 292 803 q 51 770 54 770 l 51 781 q 341 827 235 808 q 360 879 354 879 l 366 879 q 371 873 371 878 q 366 830 366 854 q 913 898 871 898 m 521 1056 q 516 1046 515 1053 q 593 975 577 964 l 597 977 q 603 994 602 979 q 558 1040 564 1027 l 556 1045 l 557 1053 q 528 1061 534 1065 l 521 1056 z "},"É":{"ha":938,"x_min":-153,"x_max":922,"o":"m 913 898 q 922 895 919 895 l 922 887 q 897 876 922 881 l 870 879 q 355 806 387 814 q 300 583 300 596 l 303 583 q 867 656 776 656 q 876 654 873 654 l 876 648 q 767 632 876 640 q 292 556 292 566 l 189 157 q 195 149 192 149 q 843 255 708 236 q 854 247 854 251 l 854 244 q 819 231 854 239 l 805 233 q 181 125 235 138 q 173 117 181 117 q 159 122 164 122 q -98 79 43 106 q -106 81 -104 81 l -106 92 q 170 146 149 138 q 273 548 262 516 q 268 556 271 556 q -144 491 136 540 q -153 494 -150 494 l -153 505 l 279 578 q 333 803 333 783 q 59 768 292 803 q 51 770 54 770 l 51 781 q 341 827 235 808 q 360 879 354 879 l 366 879 q 371 873 371 878 q 366 830 366 854 q 913 898 871 898 m 607 1029 l 601 1036 q 570 1034 596 1041 l 570 1026 l 567 1021 q 515 985 559 1010 q 517 967 513 970 l 520 964 q 610 1020 533 951 q 607 1029 612 1025 z "},"Ê":{"ha":938,"x_min":-153,"x_max":922,"o":"m 913 898 q 922 895 919 895 l 922 887 q 897 876 922 881 l 870 879 q 355 806 387 814 q 300 583 300 596 l 303 583 q 867 656 776 656 q 876 654 873 654 l 876 648 q 767 632 876 640 q 292 556 292 566 l 189 157 q 195 149 192 149 q 843 255 708 236 q 854 247 854 251 l 854 244 q 819 231 854 239 l 805 233 q 181 125 235 138 q 173 117 181 117 q 159 122 164 122 q -98 79 43 106 q -106 81 -104 81 l -106 92 q 170 146 149 138 q 273 548 262 516 q 268 556 271 556 q -144 491 136 540 q -153 494 -150 494 l -153 505 l 279 578 q 333 803 333 783 q 59 768 292 803 q 51 770 54 770 l 51 781 q 341 827 235 808 q 360 879 354 879 l 366 879 q 371 873 371 878 q 366 830 366 854 q 913 898 871 898 m 503 962 q 578 1086 555 1033 q 577 1097 578 1089 q 587 1108 578 1105 l 590 1108 q 600 1097 597 1106 q 598 1086 600 1094 q 643 955 602 1071 q 635 947 642 947 l 631 947 q 604 1010 626 953 q 587 1066 585 1067 l 591 1066 q 573 1037 591 1068 q 516 954 530 966 l 505 954 q 503 962 505 958 z "},"Ë":{"ha":938,"x_min":-153,"x_max":922,"o":"m 913 898 q 922 895 919 895 l 922 887 q 897 876 922 881 l 870 879 q 355 806 387 814 q 300 583 300 596 l 303 583 q 867 656 776 656 q 876 654 873 654 l 876 648 q 767 632 876 640 q 292 556 292 566 l 189 157 q 195 149 192 149 q 843 255 708 236 q 854 247 854 251 l 854 244 q 819 231 854 239 l 805 233 q 181 125 235 138 q 173 117 181 117 q 159 122 164 122 q -98 79 43 106 q -106 81 -104 81 l -106 92 q 170 146 149 138 q 273 548 262 516 q 268 556 271 556 q -144 491 136 540 q -153 494 -150 494 l -153 505 l 279 578 q 333 803 333 783 q 59 768 292 803 q 51 770 54 770 l 51 781 q 341 827 235 808 q 360 879 354 879 l 366 879 q 371 873 371 878 q 366 830 366 854 q 913 898 871 898 m 668 1000 q 640 1026 669 1022 l 627 1012 q 651 982 637 982 q 668 992 668 987 l 668 1000 m 569 1004 q 541 1030 570 1026 l 528 1016 q 552 985 538 986 q 569 996 568 991 l 569 1004 z "},"Ì":{"ha":411,"x_min":-332,"x_max":886,"o":"m 875 960 q 886 951 886 956 l 886 949 q 861 938 886 944 l 856 941 l -302 783 q -311 786 -308 786 l -311 797 q 875 960 38 851 m 330 824 l 335 824 q 340 819 340 823 l 167 154 l 170 154 q 810 252 486 200 q 818 249 815 249 l 818 238 l 161 132 q 151 116 155 116 l 148 116 q 140 130 142 116 l -324 59 q -332 62 -330 62 l -332 73 l 145 151 q 324 821 151 163 l 330 824 m 332 1058 q 328 1048 326 1055 q 405 977 389 966 l 408 979 q 414 996 413 981 q 370 1042 375 1029 l 368 1047 l 369 1055 q 340 1063 346 1067 l 332 1058 z "},"Í":{"ha":411,"x_min":-332,"x_max":886,"o":"m 875 960 q 886 951 886 956 l 886 949 q 861 938 886 944 l 856 941 l -302 783 q -311 786 -308 786 l -311 797 q 875 960 38 851 m 330 824 l 335 824 q 340 819 340 823 l 167 154 l 170 154 q 810 252 486 200 q 818 249 815 249 l 818 238 l 161 132 q 151 116 155 116 l 148 116 q 140 130 142 116 l -324 59 q -332 62 -330 62 l -332 73 l 145 151 q 324 821 151 163 l 330 824 m 381 1047 l 375 1053 q 345 1052 370 1059 l 345 1044 l 341 1039 q 289 1003 334 1027 q 291 985 287 988 l 294 982 q 385 1038 307 969 q 381 1047 387 1043 z "},"Î":{"ha":411,"x_min":-332,"x_max":886,"o":"m 875 960 q 886 951 886 956 l 886 949 q 861 938 886 944 l 856 941 l -302 783 q -311 786 -308 786 l -311 797 q 875 960 38 851 m 330 824 l 335 824 q 340 819 340 823 l 167 154 l 170 154 q 810 252 486 200 q 818 249 815 249 l 818 238 l 161 132 q 151 116 155 116 l 148 116 q 140 130 142 116 l -324 59 q -332 62 -330 62 l -332 73 l 145 151 q 324 821 151 163 l 330 824 m 286 981 q 361 1106 338 1053 q 360 1117 361 1109 q 370 1128 361 1125 l 373 1128 q 383 1116 380 1126 q 381 1105 383 1114 q 426 975 385 1090 q 418 967 425 966 l 414 967 q 387 1030 409 972 q 370 1086 368 1086 l 374 1086 q 356 1057 374 1088 q 299 973 313 986 l 288 973 q 286 981 288 978 z "},"Ï":{"ha":411,"x_min":-332,"x_max":886,"o":"m 875 960 q 886 951 886 956 l 886 949 q 861 938 886 944 l 856 941 l -302 783 q -311 786 -308 786 l -311 797 q 875 960 38 851 m 330 824 l 335 824 q 340 819 340 823 l 167 154 l 170 154 q 810 252 486 200 q 818 249 815 249 l 818 238 l 161 132 q 151 116 155 116 l 148 116 q 140 130 142 116 l -324 59 q -332 62 -330 62 l -332 73 l 145 151 q 324 821 151 163 l 330 824 m 434 1008 q 399 1042 435 1037 l 383 1024 q 412 987 395 987 q 433 1000 433 993 l 434 1008 m 311 1013 q 277 1046 313 1042 l 261 1029 q 290 991 273 992 q 311 1004 311 998 l 311 1013 z "},"Ð":{"ha":1029,"x_min":0,"x_max":0,"o":""},"Ñ":{"ha":794,"x_min":-26,"x_max":795,"o":"m 677 1046 q 741 929 734 1046 l 741 919 q 603 187 741 758 q 595 182 595 184 q 585 195 588 183 q 698 692 600 228 q 723 921 723 841 q 690 1025 722 1012 l 667 1025 q 222 558 551 1025 q -19 177 81 339 l -21 177 q -26 184 -26 177 q 136 848 -21 218 l 146 848 q 148 842 146 842 q 2 243 20 325 l 4 243 q 379 797 195 559 q 677 1046 582 1046 m 616 1206 q 717 1139 633 1206 l 745 1139 q 788 1169 762 1139 l 791 1169 q 795 1163 795 1168 l 795 1158 q 738 1115 766 1115 q 632 1181 709 1115 l 607 1181 q 557 1136 587 1181 l 547 1145 q 614 1203 578 1203 q 616 1206 614 1206 z "},"Ò":{"ha":663,"x_min":-9,"x_max":1011,"o":"m 246 1014 l 260 1014 q 550 884 413 1014 q 593 810 570 856 q 1003 935 646 810 l 1006 935 q 1011 930 1011 935 l 1011 927 q 661 810 938 886 q 599 791 605 798 l 607 724 q 458 382 607 572 q 149 192 286 192 q -1 333 49 192 q -9 412 -9 380 q 108 789 -9 576 l 108 791 q 43 878 43 824 q 181 1006 43 956 q 246 1014 224 1014 m 62 873 q 119 808 62 831 q 219 930 173 885 l 230 922 q 138 802 188 873 l 138 800 q 298 772 182 772 q 572 808 433 772 l 572 813 q 414 960 534 904 q 254 995 331 995 q 64 895 108 995 q 62 873 62 884 m 309 753 l 281 753 q 124 781 211 753 q 10 406 10 583 q 116 216 10 258 q 154 211 136 211 q 441 390 279 211 q 591 724 591 568 q 577 789 587 789 q 309 753 418 753 m 439 1116 q 435 1106 433 1112 q 512 1034 496 1024 l 515 1036 q 522 1054 520 1039 q 477 1099 482 1087 l 475 1105 l 476 1113 q 447 1120 453 1124 l 439 1116 z "},"Ó":{"ha":663,"x_min":-9,"x_max":1011,"o":"m 246 1014 l 260 1014 q 550 884 413 1014 q 593 810 570 856 q 1003 935 646 810 l 1006 935 q 1011 930 1011 935 l 1011 927 q 661 810 938 886 q 599 791 605 798 l 607 724 q 458 382 607 572 q 149 192 286 192 q -1 333 49 192 q -9 412 -9 380 q 108 789 -9 576 l 108 791 q 43 878 43 824 q 181 1006 43 956 q 246 1014 224 1014 m 62 873 q 119 808 62 831 q 219 930 173 885 l 230 922 q 138 802 188 873 l 138 800 q 298 772 182 772 q 572 808 433 772 l 572 813 q 414 960 534 904 q 254 995 331 995 q 64 895 108 995 q 62 873 62 884 m 309 753 l 281 753 q 124 781 211 753 q 10 406 10 583 q 116 216 10 258 q 154 211 136 211 q 441 390 279 211 q 591 724 591 568 q 577 789 587 789 q 309 753 418 753 m 511 1109 l 505 1115 q 475 1114 500 1120 l 475 1105 l 471 1101 q 419 1065 464 1089 q 421 1046 417 1050 l 425 1044 q 515 1099 437 1031 q 511 1109 517 1105 z "},"Ô":{"ha":663,"x_min":-9,"x_max":1011,"o":"m 246 1014 l 260 1014 q 550 884 413 1014 q 593 810 570 856 q 1003 935 646 810 l 1006 935 q 1011 930 1011 935 l 1011 927 q 661 810 938 886 q 599 791 605 798 l 607 724 q 458 382 607 572 q 149 192 286 192 q -1 333 49 192 q -9 412 -9 380 q 108 789 -9 576 l 108 791 q 43 878 43 824 q 181 1006 43 956 q 246 1014 224 1014 m 62 873 q 119 808 62 831 q 219 930 173 885 l 230 922 q 138 802 188 873 l 138 800 q 298 772 182 772 q 572 808 433 772 l 572 813 q 414 960 534 904 q 254 995 331 995 q 64 895 108 995 q 62 873 62 884 m 309 753 l 281 753 q 124 781 211 753 q 10 406 10 583 q 116 216 10 258 q 154 211 136 211 q 441 390 279 211 q 591 724 591 568 q 577 789 587 789 q 309 753 418 753 m 376 1046 q 451 1171 427 1118 q 450 1182 451 1174 q 459 1193 450 1190 l 463 1193 q 473 1181 469 1191 q 471 1171 473 1179 q 515 1040 474 1156 q 508 1032 515 1031 l 503 1032 q 477 1095 498 1038 q 459 1151 458 1152 l 463 1151 q 446 1122 463 1153 q 389 1038 403 1051 l 378 1038 q 376 1046 378 1043 z "},"Õ":{"ha":663,"x_min":-9,"x_max":1011,"o":"m 246 1014 l 260 1014 q 550 884 413 1014 q 593 810 570 856 q 1003 935 646 810 l 1006 935 q 1011 930 1011 935 l 1011 927 q 661 810 938 886 q 599 791 605 798 l 607 724 q 458 382 607 572 q 149 192 286 192 q -1 333 49 192 q -9 412 -9 380 q 108 789 -9 576 l 108 791 q 43 878 43 824 q 181 1006 43 956 q 246 1014 224 1014 m 62 873 q 119 808 62 831 q 219 930 173 885 l 230 922 q 138 802 188 873 l 138 800 q 298 772 182 772 q 572 808 433 772 l 572 813 q 414 960 534 904 q 254 995 331 995 q 64 895 108 995 q 62 873 62 884 m 309 753 l 281 753 q 124 781 211 753 q 10 406 10 583 q 116 216 10 258 q 154 211 136 211 q 441 390 279 211 q 591 724 591 568 q 577 789 587 789 q 309 753 418 753 m 366 1128 q 467 1062 383 1128 l 495 1062 q 538 1092 513 1062 l 541 1092 q 545 1086 545 1091 l 545 1080 q 488 1038 517 1038 q 382 1104 460 1038 l 357 1104 q 307 1059 338 1104 l 298 1068 q 364 1126 328 1126 q 366 1128 364 1128 z "},"Ö":{"ha":663,"x_min":-9,"x_max":1011,"o":"m 246 1014 l 260 1014 q 550 884 413 1014 q 593 810 570 856 q 1003 935 646 810 l 1006 935 q 1011 930 1011 935 l 1011 927 q 661 810 938 886 q 599 791 605 798 l 607 724 q 458 382 607 572 q 149 192 286 192 q -1 333 49 192 q -9 412 -9 380 q 108 789 -9 576 l 108 791 q 43 878 43 824 q 181 1006 43 956 q 246 1014 224 1014 m 62 873 q 119 808 62 831 q 219 930 173 885 l 230 922 q 138 802 188 873 l 138 800 q 298 772 182 772 q 572 808 433 772 l 572 813 q 414 960 534 904 q 254 995 331 995 q 64 895 108 995 q 62 873 62 884 m 309 753 l 281 753 q 124 781 211 753 q 10 406 10 583 q 116 216 10 258 q 154 211 136 211 q 441 390 279 211 q 591 724 591 568 q 577 789 587 789 q 309 753 418 753 m 481 1090 q 454 1116 482 1112 l 441 1102 q 465 1072 451 1072 q 481 1082 481 1077 l 481 1090 m 382 1094 q 355 1120 383 1116 l 342 1106 q 366 1076 351 1076 q 382 1086 382 1081 l 382 1094 z "},"×":{"ha":688,"x_min":0,"x_max":0,"o":""},"Ø":{"ha":663,"x_min":-9,"x_max":1011,"o":"m 246 1014 l 260 1014 q 550 884 413 1014 q 593 810 570 856 q 1003 935 646 810 l 1006 935 q 1011 930 1011 935 l 1011 927 q 661 810 938 886 q 599 791 605 798 l 607 724 q 458 382 607 572 q 149 192 286 192 q -1 333 49 192 q -9 412 -9 380 q 108 789 -9 576 l 108 791 q 43 878 43 824 q 181 1006 43 956 q 246 1014 224 1014 m 62 873 q 119 808 62 831 q 219 930 173 885 l 230 922 q 138 802 188 873 l 138 800 q 298 772 182 772 q 572 808 433 772 l 572 813 q 414 960 534 904 q 254 995 331 995 q 64 895 108 995 q 62 873 62 884 m 309 753 l 281 753 q 124 781 211 753 q 10 406 10 583 q 116 216 10 258 q 154 211 136 211 q 441 390 279 211 q 591 724 591 568 q 577 789 587 789 q 309 753 418 753 m 496 1031 l 503 1030 q 508 1015 507 1030 q 457 937 498 982 q 40 131 68 178 l 26 132 q 27 144 28 136 q 488 1027 325 732 l 496 1031 z "},"Ù":{"ha":663,"x_min":-3,"x_max":643,"o":"m 629 959 l 635 959 q 643 951 637 959 q 559 636 618 912 q 472 205 472 250 l 475 194 q 461 164 472 172 q 450 180 450 167 q 583 826 488 425 l 583 831 l 581 831 q 239 332 422 552 q 84 224 133 224 q 3 327 27 224 q -3 403 -3 365 q 84 867 -3 572 l 92 867 q 98 859 98 867 q 16 397 16 565 q 71 245 16 268 l 92 245 q 448 644 182 245 q 616 948 614 907 l 629 959 m 293 1055 q 288 1046 287 1052 q 366 974 349 964 l 369 976 q 375 994 374 979 q 330 1039 336 1027 l 328 1044 l 330 1053 q 300 1060 307 1064 l 293 1055 z "},"Ú":{"ha":663,"x_min":-3,"x_max":643,"o":"m 629 959 l 635 959 q 643 951 637 959 q 559 636 618 912 q 472 205 472 250 l 475 194 q 461 164 472 172 q 450 180 450 167 q 583 826 488 425 l 583 831 l 581 831 q 239 332 422 552 q 84 224 133 224 q 3 327 27 224 q -3 403 -3 365 q 84 867 -3 572 l 92 867 q 98 859 98 867 q 16 397 16 565 q 71 245 16 268 l 92 245 q 448 644 182 245 q 616 948 614 907 l 629 959 m 370 1013 l 364 1019 q 334 1018 359 1025 l 334 1010 l 330 1005 q 278 969 323 994 q 280 951 276 954 l 283 948 q 374 1004 296 935 q 370 1013 376 1009 z "},"Û":{"ha":663,"x_min":-3,"x_max":643,"o":"m 629 959 l 635 959 q 643 951 637 959 q 559 636 618 912 q 472 205 472 250 l 475 194 q 461 164 472 172 q 450 180 450 167 q 583 826 488 425 l 583 831 l 581 831 q 239 332 422 552 q 84 224 133 224 q 3 327 27 224 q -3 403 -3 365 q 84 867 -3 572 l 92 867 q 98 859 98 867 q 16 397 16 565 q 71 245 16 268 l 92 245 q 448 644 182 245 q 616 948 614 907 l 629 959 m 262 970 q 337 1095 313 1042 q 336 1106 337 1098 q 345 1117 336 1114 l 349 1117 q 359 1105 355 1115 q 357 1095 359 1103 q 401 964 360 1080 q 394 956 401 956 l 389 956 q 363 1019 385 962 q 345 1075 344 1076 l 349 1075 q 332 1046 349 1077 q 275 962 289 975 l 264 962 q 262 970 264 967 z "},"Ü":{"ha":663,"x_min":-3,"x_max":643,"o":"m 629 959 l 635 959 q 643 951 637 959 q 559 636 618 912 q 472 205 472 250 l 475 194 q 461 164 472 172 q 450 180 450 167 q 583 826 488 425 l 583 831 l 581 831 q 239 332 422 552 q 84 224 133 224 q 3 327 27 224 q -3 403 -3 365 q 84 867 -3 572 l 92 867 q 98 859 98 867 q 16 397 16 565 q 71 245 16 268 l 92 245 q 448 644 182 245 q 616 948 614 907 l 629 959 m 427 1027 q 399 1054 427 1050 l 386 1040 q 410 1010 396 1010 q 427 1020 427 1015 l 427 1027 m 328 1031 q 300 1058 328 1054 l 287 1044 q 311 1013 296 1014 q 328 1023 327 1019 l 328 1031 z "},"Ý":{"ha":578,"x_min":-4,"x_max":628,"o":"m 617 985 l 623 985 q 628 980 628 985 l 628 977 q 587 877 606 934 q 435 440 509 635 q 438 437 438 440 q 473 467 442 437 l 484 459 l 416 389 q 210 -2 269 12 q 172 -16 210 -11 q 132 41 138 -16 q 392 389 132 146 q 528 749 410 412 q 555 842 555 836 q 425 649 549 838 q 88 332 195 332 q 1 440 20 332 l -4 494 q 66 882 -4 627 l 72 885 l 80 885 q 83 877 80 882 q 18 508 18 646 l 18 481 q 61 356 18 385 l 80 353 l 99 353 q 514 814 213 353 q 598 969 598 947 l 617 985 m 151 41 l 151 36 q 167 3 151 13 l 178 3 q 381 348 250 3 q 378 351 378 348 q 151 41 151 140 m 366 1056 l 359 1062 q 329 1061 355 1067 l 329 1053 l 326 1048 q 273 1012 318 1036 q 275 994 271 997 l 279 991 q 369 1046 292 978 q 366 1056 371 1052 z "},"Þ":{"ha":760,"x_min":0,"x_max":0,"o":""},"ß":{"ha":296,"x_min":4,"x_max":302,"o":"m 245 804 q 302 726 302 791 l 302 720 q 170 591 302 637 l 168 577 l 168 572 q 268 448 168 556 q 279 405 279 422 q 107 325 279 348 q 98 328 102 328 l 98 336 q 202 359 98 343 q 262 408 262 380 l 262 411 q 153 551 262 443 q 147 580 147 569 q 236 640 147 609 q 285 712 285 675 l 285 732 q 245 783 277 783 q 21 250 153 783 l 16 248 l 9 248 q 4 256 4 248 q 142 692 67 532 q 245 804 196 798 z "},"à":{"ha":190,"x_min":-43,"x_max":195,"o":"m 73 586 q 100 562 86 586 q 84 483 84 506 q 95 469 90 471 q 190 545 128 469 l 195 545 l 195 534 q 95 453 138 453 q 68 494 74 453 l 65 494 q -19 434 7 434 q -43 461 -43 439 q 60 583 -43 531 l 73 586 m -27 464 l -27 458 q -19 450 -27 454 q 84 556 37 463 l 84 559 q 73 570 84 563 q -14 505 34 570 q -27 464 -27 479 m 54 715 q 49 705 47 711 q 126 633 110 623 l 130 635 q 136 653 134 638 q 91 699 96 686 l 89 704 l 90 712 q 61 720 67 724 l 54 715 z "},"á":{"ha":190,"x_min":-43,"x_max":195,"o":"m 73 586 q 100 562 86 586 q 84 483 84 506 q 95 469 90 471 q 190 545 128 469 l 195 545 l 195 534 q 95 453 138 453 q 68 494 74 453 l 65 494 q -19 434 7 434 q -43 461 -43 439 q 60 583 -43 531 l 73 586 m -27 464 l -27 458 q -19 450 -27 454 q 84 556 37 463 l 84 559 q 73 570 84 563 q -14 505 34 570 q -27 464 -27 479 m 121 693 l 115 699 q 85 699 111 705 l 84 691 l 81 686 q 27 652 73 675 q 29 634 24 637 l 32 631 q 123 683 45 618 q 121 693 126 689 z "},"â":{"ha":190,"x_min":-43,"x_max":195,"o":"m 73 586 q 100 562 86 586 q 84 483 84 506 q 95 469 90 471 q 190 545 128 469 l 195 545 l 195 534 q 95 453 138 453 q 68 494 74 453 l 65 494 q -19 434 7 434 q -43 461 -43 439 q 60 583 -43 531 l 73 586 m -27 464 l -27 458 q -19 450 -27 454 q 84 556 37 463 l 84 559 q 73 570 84 563 q -14 505 34 570 q -27 464 -27 479 m 3 644 q 78 769 54 715 q 77 780 78 772 q 86 791 77 788 l 90 791 q 100 779 96 789 q 98 768 100 777 q 142 637 101 753 q 135 630 142 629 l 130 630 q 104 693 125 635 q 86 749 85 749 l 90 749 q 73 720 90 751 q 16 636 30 649 l 5 636 q 3 644 5 641 z "},"ã":{"ha":190,"x_min":-43,"x_max":205,"o":"m 73 586 q 100 562 86 586 q 84 483 84 506 q 95 469 90 471 q 190 545 128 469 l 195 545 l 195 534 q 95 453 138 453 q 68 494 74 453 l 65 494 q -19 434 7 434 q -43 461 -43 439 q 60 583 -43 531 l 73 586 m -27 464 l -27 458 q -19 450 -27 454 q 84 556 37 463 l 84 559 q 73 570 84 563 q -14 505 34 570 q -27 464 -27 479 m 28 729 q 128 663 45 729 l 155 663 q 199 692 173 663 l 201 692 q 205 686 205 692 l 205 681 q 149 638 178 638 q 44 705 121 638 l 19 705 q -31 659 -1 705 l -40 669 q 26 726 -9 726 q 28 729 26 729 z "},"ä":{"ha":190,"x_min":-43,"x_max":195,"o":"m 73 586 q 100 562 86 586 q 84 483 84 506 q 95 469 90 471 q 190 545 128 469 l 195 545 l 195 534 q 95 453 138 453 q 68 494 74 453 l 65 494 q -19 434 7 434 q -43 461 -43 439 q 60 583 -43 531 l 73 586 m -27 464 l -27 458 q -19 450 -27 454 q 84 556 37 463 l 84 559 q 73 570 84 563 q -14 505 34 570 q -27 464 -27 479 m 144 649 q 117 675 145 671 l 104 661 q 127 631 114 631 q 144 642 144 636 l 144 649 m 45 653 q 18 680 46 675 l 5 665 q 28 635 14 635 q 45 645 45 640 l 45 653 z "},"å":{"ha":190,"x_min":-43,"x_max":195,"o":"m 73 586 q 100 562 86 586 q 84 483 84 506 q 95 469 90 471 q 190 545 128 469 l 195 545 l 195 534 q 95 453 138 453 q 68 494 74 453 l 65 494 q -19 434 7 434 q -43 461 -43 439 q 60 583 -43 531 l 73 586 m -27 464 l -27 458 q -19 450 -27 454 q 84 556 37 463 l 84 559 q 73 570 84 563 q -14 505 34 570 q -27 464 -27 479 m 85 720 q 140 679 140 710 l 140 676 q 115 622 140 661 q 121 616 121 621 l 121 614 q 91 600 121 606 q 26 665 26 612 q 85 720 26 705 m 47 679 l 47 657 q 66 625 47 635 l 72 625 q 121 671 103 625 l 121 684 q 94 698 115 698 l 80 698 q 47 679 57 698 z "},"æ":{"ha":233,"x_min":-43,"x_max":247,"o":"m 73 586 q 100 562 86 586 q 84 483 84 506 q 95 469 90 471 l 95 453 q 68 494 74 453 l 65 494 q -19 434 7 434 q -43 461 -43 439 q 60 583 -43 531 l 73 586 m -27 464 l -27 458 q -19 450 -27 454 q 84 556 37 463 l 84 559 q 73 570 84 563 q -14 505 34 570 q -27 464 -27 479 m 146 576 l 149 576 q 171 563 164 576 l 171 555 q 100 519 171 542 q 95 495 95 502 l 95 487 q 111 471 100 476 l 141 471 q 236 552 183 471 l 241 552 q 247 544 247 552 q 130 449 187 449 q 76 495 76 456 q 146 576 97 576 m 112 536 l 129 547 l 148 558 l 134 557 q 112 536 121 555 z "},"ç":{"ha":169,"x_min":-60,"x_max":184,"o":"m 66 583 q 87 561 87 580 q 55 507 84 537 l 44 515 q 68 561 68 551 l 63 561 q -16 474 9 561 l -16 455 q 20 436 -4 436 l 39 436 q 173 547 83 436 l 181 547 q 184 542 181 542 q 47 417 133 446 q 28 414 31 417 q -35 466 -35 425 l -37 466 q 44 577 -37 524 q 66 583 66 577 m 22 429 q 27 423 27 428 l 27 418 q 0 374 0 389 q 57 358 0 370 q 81 323 74 345 q -14 241 81 262 q -57 288 -52 241 l -60 288 q -52 301 -56 301 l -46 301 q -33 266 -41 301 q -14 260 -22 260 q 60 312 42 260 l 60 323 q -16 355 60 347 l -22 363 q 22 429 -5 429 z "},"è":{"ha":130,"x_min":-27,"x_max":144,"o":"m 43 566 l 46 566 q 68 553 61 566 l 68 545 q -3 509 68 532 q -8 485 -8 492 l -8 477 q 8 460 -3 466 l 38 460 q 133 542 80 460 l 138 542 q 144 534 144 542 q 27 439 84 439 q -27 485 -27 446 q 43 566 -6 566 m 9 526 l 26 536 l 45 548 l 31 547 q 9 526 18 545 m 9 682 q 5 672 3 678 q 82 600 66 590 l 85 602 q 92 620 90 605 q 47 665 52 653 l 45 671 l 46 679 q 17 686 23 690 l 9 682 z "},"é":{"ha":130,"x_min":-27,"x_max":144,"o":"m 43 566 l 46 566 q 68 553 61 566 l 68 545 q -3 509 68 532 q -8 485 -8 492 l -8 477 q 8 460 -3 466 l 38 460 q 133 542 80 460 l 138 542 q 144 534 144 542 q 27 439 84 439 q -27 485 -27 446 q 43 566 -6 566 m 9 526 l 26 536 l 45 548 l 31 547 q 9 526 18 545 m 91 682 l 85 688 q 54 686 80 693 l 54 678 l 51 673 q -1 637 43 662 q 1 619 -3 623 l 4 616 q 94 672 17 604 q 91 682 96 677 z "},"ê":{"ha":130,"x_min":-28,"x_max":144,"o":"m 43 566 l 46 566 q 68 553 61 566 l 68 545 q -3 509 68 532 q -8 485 -8 492 l -8 477 q 8 460 -3 466 l 38 460 q 133 542 80 460 l 138 542 q 144 534 144 542 q 27 439 84 439 q -27 485 -27 446 q 43 566 -6 566 m 9 526 l 26 536 l 45 548 l 31 547 q 9 526 18 545 m -28 623 q 47 747 24 694 q 46 758 47 750 q 56 769 47 766 l 59 769 q 69 758 66 767 q 67 747 69 755 q 112 616 71 732 q 104 608 111 608 l 100 608 q 73 671 95 614 q 56 727 54 728 l 60 727 q 42 698 60 729 q -15 614 -1 627 l -26 614 q -28 623 -26 619 z "},"ë":{"ha":130,"x_min":-32,"x_max":144,"o":"m 43 566 l 46 566 q 68 553 61 566 l 68 545 q -3 509 68 532 q -8 485 -8 492 l -8 477 q 8 460 -3 466 l 38 460 q 133 542 80 460 l 138 542 q 144 534 144 542 q 27 439 84 439 q -27 485 -27 446 q 43 566 -6 566 m 9 526 l 26 536 l 45 548 l 31 547 q 9 526 18 545 m 108 628 q 80 654 109 650 l 67 640 q 91 610 77 610 q 108 621 108 615 l 108 628 m 9 632 q -19 659 9 654 l -32 644 q -8 614 -22 614 q 9 624 8 619 l 9 632 z "},"ì":{"ha":130,"x_min":-20,"x_max":143,"o":"m 13 572 l 21 572 q 24 564 21 569 q -1 463 -1 494 l -1 439 l 10 439 q 132 545 43 439 l 140 545 q 143 539 140 539 q -1 420 60 420 l -3 420 q -20 455 -20 427 q 13 572 1 572 m 0 690 q -5 681 -6 687 q 73 609 56 599 l 76 611 q 82 629 81 614 q 37 674 43 662 l 35 680 l 37 688 q 7 695 14 699 l 0 690 z "},"í":{"ha":130,"x_min":-35,"x_max":143,"o":"m 13 572 l 21 572 q 24 564 21 569 q -1 463 -1 494 l -1 439 l 10 439 q 132 545 43 439 l 140 545 q 143 539 140 539 q -1 420 60 420 l -3 420 q -20 455 -20 427 q 13 572 1 572 m 60 680 l 54 686 q 23 684 49 691 l 23 676 l 20 671 q -33 635 12 660 q -31 617 -35 621 l -27 614 q 63 670 -14 602 q 60 680 65 675 z "},"î":{"ha":130,"x_min":-41,"x_max":143,"o":"m 13 572 l 21 572 q 24 564 21 569 q -1 463 -1 494 l -1 439 l 10 439 q 132 545 43 439 l 140 545 q 143 539 140 539 q -1 420 60 420 l -3 420 q -20 455 -20 427 q 13 572 1 572 m -41 621 q 34 745 10 692 q 33 756 34 748 q 42 767 33 764 l 45 767 q 56 755 52 765 q 54 745 56 753 q 98 614 57 730 q 91 606 98 606 l 86 606 q 60 669 81 612 q 42 725 41 726 l 46 725 q 28 696 46 727 q -28 612 -14 625 l -39 612 q -41 621 -39 617 z "},"ï":{"ha":130,"x_min":-62,"x_max":143,"o":"m 13 572 l 21 572 q 24 564 21 569 q -1 463 -1 494 l -1 439 l 10 439 q 132 545 43 439 l 140 545 q 143 539 140 539 q -1 420 60 420 l -3 420 q -20 455 -20 427 q 13 572 1 572 m 111 632 q 75 665 111 661 l 60 648 q 89 611 72 611 q 110 623 110 616 l 111 632 m -12 637 q -47 670 -11 665 l -62 652 q -33 615 -50 616 q -12 628 -13 621 l -12 637 z "},"ð":{"ha":772,"x_min":0,"x_max":0,"o":""},"ñ":{"ha":173,"x_min":-26,"x_max":195,"o":"m 78 564 l 86 564 q 100 545 100 556 q 92 488 92 501 l 92 472 l 97 472 q 173 548 119 472 l 181 548 q 184 543 181 543 q 100 453 141 465 l 89 453 q 73 483 73 462 q 81 545 73 493 l 73 545 q -12 450 48 529 l -17 450 q -22 456 -22 450 q 5 553 -3 553 l 10 553 q 16 545 16 553 q 10 513 10 522 l 18 513 q 78 564 56 564 m 35 705 q 125 639 50 705 l 150 639 q 189 669 165 639 l 191 669 q 195 663 195 668 l 195 657 q 144 614 170 614 q 50 681 118 614 l 27 681 q -18 635 9 681 l -26 645 q 33 703 1 703 q 35 705 33 705 z "},"ò":{"ha":153,"x_min":-20,"x_max":167,"o":"m 34 562 q 80 510 75 562 l 83 510 q 156 545 104 510 l 161 545 q 167 540 167 545 l 167 537 q 69 483 156 515 q 15 434 42 434 q -20 480 -20 443 q 34 562 -6 562 m 28 540 l 28 534 q 61 510 33 510 l 61 518 q 28 540 52 549 m 9 518 q -1 476 -3 493 q 9 456 1 460 l 18 456 q 53 491 41 456 q 9 518 39 496 m 25 694 q 20 685 19 691 q 98 613 81 603 l 101 615 q 107 633 106 618 q 62 678 68 666 l 60 684 l 62 692 q 33 699 39 703 l 25 694 z "},"ó":{"ha":153,"x_min":-20,"x_max":167,"o":"m 34 562 q 80 510 75 562 l 83 510 q 156 545 104 510 l 161 545 q 167 540 167 545 l 167 537 q 69 483 156 515 q 15 434 42 434 q -20 480 -20 443 q 34 562 -6 562 m 28 540 l 28 534 q 61 510 33 510 l 61 518 q 28 540 52 549 m 9 518 q -1 476 -3 493 q 9 456 1 460 l 18 456 q 53 491 41 456 q 9 518 39 496 m 102 677 l 96 683 q 65 682 91 688 l 65 673 l 62 669 q 9 633 54 657 q 12 614 7 618 l 15 612 q 105 667 28 599 q 102 677 107 673 z "},"ô":{"ha":153,"x_min":-23,"x_max":167,"o":"m 34 562 q 80 510 75 562 l 83 510 q 156 545 104 510 l 161 545 q 167 540 167 545 l 167 537 q 69 483 156 515 q 15 434 42 434 q -20 480 -20 443 q 34 562 -6 562 m 28 540 l 28 534 q 61 510 33 510 l 61 518 q 28 540 52 549 m 9 518 q -1 476 -3 493 q 9 456 1 460 l 18 456 q 53 491 41 456 q 9 518 39 496 m -23 619 q 52 744 28 690 q 51 755 52 747 q 60 766 52 763 l 64 766 q 74 754 71 764 q 72 743 74 751 q 117 612 75 728 q 109 605 116 604 l 104 605 q 78 668 100 610 q 60 724 59 724 l 64 724 q 47 694 64 726 q -10 611 4 624 l -21 611 q -23 619 -21 616 z "},"õ":{"ha":153,"x_min":-39,"x_max":167,"o":"m 34 562 q 80 510 75 562 l 83 510 q 156 545 104 510 l 161 545 q 167 540 167 545 l 167 537 q 69 483 156 515 q 15 434 42 434 q -20 480 -20 443 q 34 562 -6 562 m 28 540 l 28 534 q 61 510 33 510 l 61 518 q 28 540 52 549 m 9 518 q -1 476 -3 493 q 9 456 1 460 l 18 456 q 53 491 41 456 q 9 518 39 496 m 17 695 q 98 629 30 695 l 121 629 q 156 659 135 629 l 158 659 q 161 652 161 658 l 161 647 q 115 604 138 604 q 30 671 92 604 l 9 671 q -31 625 -7 671 l -39 635 q 15 692 -14 692 q 17 695 15 695 z "},"ö":{"ha":153,"x_min":-24,"x_max":167,"o":"m 34 562 q 80 510 75 562 l 83 510 q 156 545 104 510 l 161 545 q 167 540 167 545 l 167 537 q 69 483 156 515 q 15 434 42 434 q -20 480 -20 443 q 34 562 -6 562 m 28 540 l 28 534 q 61 510 33 510 l 61 518 q 28 540 52 549 m 9 518 q -1 476 -3 493 q 9 456 1 460 l 18 456 q 53 491 41 456 q 9 518 39 496 m 116 625 q 88 652 117 648 l 75 637 q 99 608 85 608 q 116 618 116 612 l 116 625 m 17 629 q -11 656 18 652 l -24 642 q 0 611 -14 612 q 17 621 16 616 l 17 629 z "},"÷":{"ha":688,"x_min":0,"x_max":0,"o":""},"ø":{"ha":153,"x_min":-56,"x_max":167,"o":"m 34 562 q 80 510 75 562 l 83 510 q 156 545 104 510 l 161 545 q 167 540 167 545 l 167 537 q 69 483 156 515 q 15 434 42 434 q -20 480 -20 443 q 34 562 -6 562 m 28 540 l 28 534 q 61 510 33 510 l 61 518 q 28 540 52 549 m 9 518 q -1 476 -3 493 q 9 456 1 460 l 18 456 q 53 491 41 456 q 9 518 39 496 m 108 658 l 109 653 q 109 638 111 649 q 93 618 105 623 q -53 336 -44 349 l -56 345 q -56 353 -56 347 q 106 661 50 564 l 108 658 z "},"ù":{"ha":188,"x_min":-17,"x_max":197,"o":"m 105 585 l 108 585 q 113 577 113 585 q 105 507 105 534 l 105 496 q 116 471 105 475 l 119 471 q 186 545 145 471 l 192 545 q 197 536 197 545 q 121 455 159 463 l 119 455 q 89 504 89 455 l 89 517 l 81 517 q 5 450 47 450 q -17 482 -17 458 q 7 558 -8 541 l 16 558 l 16 553 q -1 477 -1 498 q 7 466 3 466 l 13 466 q 105 585 41 466 m 25 705 q 20 696 19 702 q 98 624 81 614 l 101 626 q 107 644 106 629 q 62 689 68 677 l 60 694 l 62 703 q 33 710 39 714 l 25 705 z "},"ú":{"ha":188,"x_min":-17,"x_max":197,"o":"m 105 585 l 108 585 q 113 577 113 585 q 105 507 105 534 l 105 496 q 116 471 105 475 l 119 471 q 186 545 145 471 l 192 545 q 197 536 197 545 q 121 455 159 463 l 119 455 q 89 504 89 455 l 89 517 l 81 517 q 5 450 47 450 q -17 482 -17 458 q 7 558 -8 541 l 16 558 l 16 553 q -1 477 -1 498 q 7 466 3 466 l 13 466 q 105 585 41 466 m 115 699 l 109 705 q 79 704 104 711 l 79 696 l 75 691 q 23 655 68 680 q 25 637 21 640 l 28 634 q 119 690 41 621 q 115 699 121 695 z "},"û":{"ha":188,"x_min":-17,"x_max":197,"o":"m 105 585 l 108 585 q 113 577 113 585 q 105 507 105 534 l 105 496 q 116 471 105 475 l 119 471 q 186 545 145 471 l 192 545 q 197 536 197 545 q 121 455 159 463 l 119 455 q 89 504 89 455 l 89 517 l 81 517 q 5 450 47 450 q -17 482 -17 458 q 7 558 -8 541 l 16 558 l 16 553 q -1 477 -1 498 q 7 466 3 466 l 13 466 q 105 585 41 466 m -8 659 q 67 783 43 730 q 66 794 67 786 q 75 805 66 802 l 79 805 q 89 793 85 803 q 87 783 89 791 q 132 652 90 768 q 124 644 131 644 l 119 644 q 93 707 115 650 q 75 763 74 764 l 79 763 q 62 734 79 765 q 5 650 19 663 l -6 650 q -8 659 -6 655 z "},"ü":{"ha":188,"x_min":-17,"x_max":197,"o":"m 105 585 l 108 585 q 113 577 113 585 q 105 507 105 534 l 105 496 q 116 471 105 475 l 119 471 q 186 545 145 471 l 192 545 q 197 536 197 545 q 121 455 159 463 l 119 455 q 89 504 89 455 l 89 517 l 81 517 q 5 450 47 450 q -17 482 -17 458 q 7 558 -8 541 l 16 558 l 16 553 q -1 477 -1 498 q 7 466 3 466 l 13 466 q 105 585 41 466 m 132 646 q 104 673 133 669 l 92 659 q 115 629 102 629 q 132 639 132 633 l 132 646 m 33 650 q 5 677 34 673 l -7 663 q 16 632 2 633 q 33 642 33 637 l 33 650 z "},"ý":{"ha":158,"x_min":-141,"x_max":168,"o":"m 111 585 l 114 585 q 119 579 119 584 q 87 430 119 566 l 90 430 q 157 544 93 431 q 160 547 160 544 q 168 544 165 544 l 168 541 q 65 346 168 536 q -119 -110 -52 -110 q -141 -83 -132 -108 q 54 365 -141 -22 q 90 514 90 500 l 87 514 q 16 457 43 457 q -8 490 -8 462 l -8 498 q 8 560 -3 560 l 14 560 q 19 555 19 559 q 8 484 8 507 q 16 473 12 473 l 19 473 q 111 585 47 473 m -122 -88 q -114 -91 -117 -91 q -3 161 -80 -91 q 24 259 24 246 l 22 259 q -122 -88 -122 -11 m 115 697 l 109 703 q 79 702 104 709 l 79 694 l 75 689 q 23 653 68 677 q 25 635 21 638 l 28 632 q 119 688 41 619 q 115 697 121 693 z "},"þ":{"ha":685,"x_min":0,"x_max":0,"o":""},"ÿ":{"ha":158,"x_min":-141,"x_max":168,"o":"m 111 585 l 114 585 q 119 579 119 584 q 87 430 119 566 l 90 430 q 157 544 93 431 q 160 547 160 544 q 168 544 165 544 l 168 541 q 65 346 168 536 q -119 -110 -52 -110 q -141 -83 -132 -108 q 54 365 -141 -22 q 90 514 90 500 l 87 514 q 16 457 43 457 q -8 490 -8 462 l -8 498 q 8 560 -3 560 l 14 560 q 19 555 19 559 q 8 484 8 507 q 16 473 12 473 l 19 473 q 111 585 47 473 m -122 -88 q -114 -91 -117 -91 q -3 161 -80 -91 q 24 259 24 246 l 22 259 q -122 -88 -122 -11 m 136 633 q 109 659 137 655 l 96 645 q 119 615 106 615 q 136 625 136 620 l 136 633 m 37 637 q 9 663 38 659 l -3 649 q 20 618 6 619 q 37 629 37 624 l 37 637 z "},"ı":{"ha":349,"x_min":0,"x_max":0,"o":""},"ˆ":{"ha":694,"x_min":0,"x_max":0,"o":""},"ˇ":{"ha":694,"x_min":0,"x_max":0,"o":""},"ˉ":{"ha":694,"x_min":0,"x_max":0,"o":""},"˘":{"ha":694,"x_min":0,"x_max":0,"o":""},"˙":{"ha":694,"x_min":0,"x_max":0,"o":""},"˚":{"ha":195,"x_min":37,"x_max":151,"o":"m 97 759 q 151 718 151 749 l 151 715 q 127 661 151 701 q 132 656 132 661 l 132 653 q 102 640 132 646 q 37 705 37 652 q 97 759 37 745 m 59 718 l 59 696 q 78 664 59 675 l 83 664 q 132 710 115 664 l 132 724 q 105 737 126 737 l 92 737 q 59 718 68 737 z "},"˛":{"ha":694,"x_min":0,"x_max":0,"o":""},"˜":{"ha":290,"x_min":16,"x_max":263,"o":"m 84 675 q 185 609 101 675 l 213 609 q 256 639 231 609 l 259 639 q 263 633 263 638 l 263 627 q 206 585 235 585 q 100 651 178 585 l 75 651 q 25 606 56 651 l 16 615 q 82 673 46 673 q 84 675 82 675 z "},"˝":{"ha":694,"x_min":0,"x_max":0,"o":""},"–":{"ha":281,"x_min":37,"x_max":277,"o":"m 275 547 l 277 540 q 273 526 277 535 q 252 534 266 518 q 38 518 50 515 l 37 532 q 39 538 37 532 q 273 553 195 557 l 275 547 z "},"—":{"ha":416,"x_min":37,"x_max":427,"o":"m 425 547 l 427 540 q 422 526 427 535 q 387 534 410 518 q 39 518 59 515 l 37 532 q 40 538 37 532 q 422 553 294 557 l 425 547 z "},"‘":{"ha":80,"x_min":0,"x_max":0,"o":""},"’":{"ha":80,"x_min":0,"x_max":0,"o":""},"‚":{"ha":80,"x_min":0,"x_max":0,"o":""},"“":{"ha":115,"x_min":0,"x_max":0,"o":""},"”":{"ha":115,"x_min":0,"x_max":0,"o":""},"„":{"ha":115,"x_min":0,"x_max":0,"o":""},"†":{"ha":688,"x_min":0,"x_max":0,"o":""},"‡":{"ha":688,"x_min":0,"x_max":0,"o":""},"•":{"ha":694,"x_min":0,"x_max":0,"o":""},"…":{"ha":1389,"x_min":0,"x_max":0,"o":""},"‹":{"ha":428,"x_min":0,"x_max":0,"o":""},"›":{"ha":428,"x_min":0,"x_max":0,"o":""},"⁄":{"ha":232,"x_min":0,"x_max":0,"o":""},"∕":{"ha":232,"x_min":0,"x_max":0,"o":""},"₣":{"ha":688,"x_min":0,"x_max":0,"o":""},"₤":{"ha":688,"x_min":0,"x_max":0,"o":""},"₧":{"ha":1375,"x_min":0,"x_max":0,"o":""},"€":{"ha":688,"x_min":0,"x_max":0,"o":""},"№":{"ha":1540,"x_min":0,"x_max":0,"o":""},"™":{"ha":1015,"x_min":0,"x_max":0,"o":""},"∂":{"ha":688,"x_min":0,"x_max":0,"o":""},"∆":{"ha":733,"x_min":0,"x_max":0,"o":""},"∏":{"ha":1027,"x_min":0,"x_max":0,"o":""},"∑":{"ha":818,"x_min":0,"x_max":0,"o":""},"−":{"ha":688,"x_min":0,"x_max":0,"o":""},"√":{"ha":688,"x_min":0,"x_max":0,"o":""},"∞":{"ha":688,"x_min":0,"x_max":0,"o":""},"∫":{"ha":451,"x_min":0,"x_max":0,"o":""},"≈":{"ha":688,"x_min":0,"x_max":0,"o":""},"≤":{"ha":688,"x_min":0,"x_max":0,"o":""},"≥":{"ha":688,"x_min":0,"x_max":0,"o":""},"":{"ha":728,"x_min":0,"x_max":0,"o":""},"ﬁ":{"ha":728,"x_min":0,"x_max":0,"o":""},"":{"ha":733,"x_min":0,"x_max":0,"o":""},"ﬂ":{"ha":733,"x_min":0,"x_max":0,"o":""}}}
